<svg id="ps-gpay" width="66" height="26" viewBox="0 0 66 26" fill="none" xmlns="http://www.w3.org/2000/svg">
<path d="M31.1454 12.4215V19.821H28.7715V1.54768H35.0674C35.8189 1.53215 36.5661 1.66395 37.2658 1.93547C37.9656 2.20699 38.604 2.61284 39.1443 3.12962C39.69 3.61502 40.1243 4.21032 40.4181 4.87549C40.7118 5.54067 40.8581 6.26032 40.8473 6.98607C40.8629 7.7157 40.7188 8.44005 40.4248 9.10946C40.1309 9.77888 39.6941 10.3775 39.1443 10.8644C38.0433 11.9025 36.6844 12.4211 35.0674 12.4201H31.1454V12.4215ZM31.1454 3.79739V10.1762H35.1264C35.5628 10.189 35.9972 10.1116 36.4016 9.94889C36.806 9.7862 37.1717 9.54183 37.4752 9.23141C37.7771 8.94117 38.0171 8.59403 38.1809 8.21049C38.3448 7.82695 38.4292 7.41482 38.4292 6.99846C38.4292 6.5821 38.3448 6.16997 38.1809 5.78643C38.0171 5.4029 37.7771 5.05575 37.4752 4.76551C37.1755 4.44855 36.8111 4.19819 36.4062 4.03104C36.0013 3.86388 35.565 3.78374 35.1264 3.79593H31.1454V3.79739ZM46.3175 6.91025C48.0721 6.91025 49.4571 7.3739 50.4725 8.3012C51.4879 9.22849 51.9951 10.4999 51.9941 12.1154V19.821H49.7235V18.0859H49.6203C48.6373 19.5148 47.3299 20.2292 45.6982 20.2292C44.3053 20.2292 43.14 19.821 42.2023 19.0045C41.7523 18.6297 41.3924 18.1604 41.1491 17.6307C40.9058 17.101 40.785 16.5243 40.7957 15.9426C40.7957 14.6489 41.2901 13.62 42.279 12.856C43.2678 12.092 44.5879 11.7091 46.2393 11.7071C47.6489 11.7071 48.8098 11.9623 49.722 12.4726V11.936C49.7247 11.5395 49.6381 11.1473 49.4685 10.7879C49.2989 10.4286 49.0506 10.111 48.7415 9.85836C48.1137 9.2983 47.2956 8.99272 46.4502 9.0025C45.1242 9.0025 44.0748 9.55558 43.3022 10.6617L41.2114 9.35972C42.3615 7.72674 44.0635 6.91025 46.3175 6.91025ZM43.2462 15.9937C43.2446 16.2924 43.3152 16.5872 43.4522 16.8535C43.5891 17.1198 43.7885 17.3499 44.0336 17.5246C44.5586 17.933 45.2102 18.1493 45.8781 18.137C46.8798 18.1353 47.84 17.741 48.5483 17.0405C49.3347 16.3086 49.7279 15.4498 49.7279 14.4642C48.9877 13.881 47.9556 13.5894 46.6315 13.5894C45.6672 13.5894 44.8632 13.8193 44.2193 14.2791C43.5691 14.7456 43.2462 15.3128 43.2462 15.9937ZM65.0283 7.3185L57.1016 25.3323H54.6511L57.5926 19.0293L52.3804 7.3185H54.9607L58.728 16.2999H58.7796L62.4436 7.3185H65.0283Z" fill="#5F6368"/>
<path d="M21.5528 10.8264C21.5537 10.1111 21.4925 9.39693 21.3699 8.69189H11.3584V12.735H17.0925C16.9752 13.3807 16.7269 13.9963 16.3625 14.5445C15.9981 15.0928 15.5252 15.5624 14.9723 15.9251V18.5495H18.3945C20.3983 16.7226 21.5528 14.0209 21.5528 10.8264Z" fill="#4285F4"/>
<path d="M11.3582 21.085C14.2231 21.085 16.6353 20.1548 18.3943 18.551L14.9721 15.9265C14.0196 16.5651 12.7928 16.9297 11.3582 16.9297C8.58918 16.9297 6.2389 15.0838 5.39846 12.5964H1.87305V15.3011C2.75664 17.0397 4.11153 18.5013 5.78645 19.5226C7.46138 20.544 9.39042 21.0849 11.3582 21.085Z" fill="#34A853"/>
<path d="M5.39851 12.5964C4.95421 11.293 4.95421 9.88155 5.39851 8.57815V5.87354H1.8731C1.12979 7.33615 0.742676 8.95038 0.742676 10.5873C0.742676 12.2242 1.12979 13.8384 1.8731 15.3011L5.39851 12.5964Z" fill="#FBBC04"/>
<path d="M11.3582 4.2449C12.8722 4.22044 14.335 4.78608 15.4306 5.81955L18.4606 2.82333C16.5393 1.03883 13.994 0.059114 11.3582 0.0895559C9.39042 0.0896446 7.46138 0.630559 5.78645 1.65191C4.11153 2.67326 2.75664 4.13485 1.87305 5.8735L5.39846 8.57811C6.2389 6.09074 8.58918 4.2449 11.3582 4.2449Z" fill="#EA4335"/>
</svg>
