<svg id="ps-mastercard" width="46" height="25" viewBox="0 0 46 25" fill="none" xmlns="http://www.w3.org/2000/svg">
<path d="M13.2212 25C20.1252 25 25.7212 19.4036 25.7212 12.5C25.7212 5.59644 20.1252 0 13.2212 0C6.31719 0 0.721191 5.59644 0.721191 12.5C0.721191 19.4036 6.31719 25 13.2212 25Z" fill="#EC0020"/>
<path d="M33.2212 25C40.1252 25 45.7212 19.4036 45.7212 12.5C45.7212 5.59644 40.1252 0 33.2212 0C26.3172 0 20.7212 5.59644 20.7212 12.5C20.7212 19.4036 26.3172 25 33.2212 25Z" fill="#FE9A0C"/>
<path fill-rule="evenodd" clip-rule="evenodd" d="M9.2822 15.96H8.16418L9.18719 10.268H9.16818L7.07819 15.96H5.72119L5.6962 10.268H5.67719L4.8472 15.96H3.72119L4.9462 8.96899H6.6962L6.77118 14.415H6.79019L8.77319 8.96899H10.5032L9.28519 15.96H9.2822ZM17.7052 12.06C17.2112 11.9619 16.7082 11.9253 16.2052 11.951C15.5992 12.024 15.4672 12.207 15.4292 12.419C15.2902 13.202 18.0492 12.451 17.7142 14.265C17.6272 14.77 17.3592 15.2262 16.9612 15.5484C16.5622 15.8706 16.0602 16.0368 15.5482 16.016C14.9422 16.0607 14.3342 15.9786 13.7622 15.775L13.9262 14.817C14.4882 14.9374 15.0632 14.9891 15.6372 14.971C15.8242 14.9887 16.0122 14.9507 16.1772 14.8617C16.3422 14.7727 16.4772 14.6367 16.5652 14.471C16.7172 13.645 13.9652 14.271 14.2982 12.423C14.3882 11.9694 14.6462 11.5667 15.0212 11.2963C15.3972 11.0258 15.8602 10.9078 16.3192 10.966C16.8412 10.972 17.3602 11.0508 17.8602 11.2L17.7082 12.062L17.7052 12.06ZM18.3372 11.829L18.7472 9.982H19.8652L19.6252 10.907H20.3212L20.1512 11.828H19.4512L18.9592 14.497C18.9082 14.79 18.8962 14.897 19.3502 14.897C19.4292 14.8966 19.5072 14.8892 19.5842 14.875L19.4262 15.869C19.2492 15.877 19.0472 16.001 18.8702 16.001H18.7312C18.5772 16.0336 18.4162 16.0224 18.2682 15.9686C18.1192 15.9148 17.9892 15.8207 17.8912 15.6967C17.7932 15.5728 17.7322 15.424 17.7142 15.2671C17.6972 15.1103 17.7232 14.9516 17.7912 14.809L18.3342 11.825L18.3372 11.829ZM21.0312 13.959C20.9852 14.0833 20.9712 14.2172 20.9912 14.3482C21.0102 14.4793 21.0622 14.6035 21.1412 14.7095C21.2212 14.8154 21.3252 14.8998 21.4462 14.9549C21.5662 15.01 21.6992 15.0341 21.8312 15.025C22.5272 15.0727 23.2182 14.873 23.7822 14.461L23.6052 15.383C23.0332 15.8067 22.3252 16.0069 21.6162 15.946C20.4232 15.946 19.6162 15.281 19.9932 13.262C20.1072 12.67 20.6312 10.768 22.4872 10.768C23.3272 10.768 24.4012 11.487 23.9872 13.733L23.9492 13.959H21.0312ZM22.9522 13C23.0352 12.2 22.6372 11.837 22.2772 11.837C21.9992 11.8909 21.7462 12.0334 21.5562 12.243C21.3652 12.4526 21.2482 12.7182 21.2212 13H22.9572H22.9522ZM24.6892 10.995H25.7562L25.5982 11.749H25.6212C25.7372 11.4805 25.9222 11.2483 26.1592 11.077C26.3962 10.9057 26.6752 10.8017 26.9662 10.776C27.0422 10.776 27.2062 10.813 27.2762 10.82L26.8652 12.1C26.6912 12.0733 26.5132 12.0824 26.3422 12.1267C26.1712 12.171 26.0112 12.2496 25.8722 12.3576C25.7332 12.4656 25.6172 12.6009 25.5312 12.7552C25.4462 12.9095 25.3932 13.0795 25.3752 13.255L24.9082 16.009H23.7902L24.6902 10.995H24.6892ZM31.4392 10.462C31.0252 10.1978 30.5242 10.1082 30.0442 10.213C29.4762 10.313 28.5442 10.652 28.1942 12.531C28.0172 13.489 28.1122 14.637 29.0332 14.856C29.3512 14.9349 29.6822 14.9438 30.0042 14.8819C30.3262 14.8201 30.6302 14.6891 30.8962 14.498L30.5962 15.705C30.4632 15.756 30.3432 16.093 28.9612 16.005C27.4332 15.905 26.5552 14.805 26.9782 12.51C27.4012 10.192 28.7782 8.99199 30.2612 9.01C30.5222 9.01 30.7812 9.0653 31.0192 9.1723C31.2572 9.2794 31.4702 9.4357 31.6442 9.631L31.4442 10.465L31.4392 10.462ZM41.5172 15.962H40.4212L40.5342 15.207H40.5212C40.3732 15.4352 40.1702 15.6225 39.9312 15.7515C39.6912 15.8805 39.4232 15.947 39.1512 15.945C37.8882 15.945 37.5972 14.658 37.8432 13.306C38.1592 11.606 39.1432 10.767 40.0792 10.767C40.3212 10.7523 40.5602 10.8205 40.7572 10.9603C40.9552 11.1002 41.0992 11.3033 41.1652 11.536H41.1842L41.6132 8.98599H42.7312L41.5212 15.96L41.5172 15.962ZM39.6232 14.885C39.9642 14.8339 40.2762 14.6644 40.5052 14.4062C40.7332 14.1481 40.8642 13.8177 40.8732 13.473C41.0182 12.683 40.9682 11.886 40.2042 11.886C39.8552 11.9561 39.5422 12.1459 39.3182 12.4226C39.0952 12.6992 38.9752 13.0453 38.9792 13.401C38.8712 13.978 38.9092 14.885 39.6232 14.885ZM34.7732 14.775C34.7732 14.775 34.6662 15.302 34.6412 15.565L34.5842 16.008H33.5932C33.5702 15.7512 33.5702 15.4928 33.5932 15.236C33.4072 15.4533 33.1772 15.6289 32.9192 15.7511C32.6602 15.8733 32.3792 15.9394 32.0932 15.945C31.9182 15.9546 31.7442 15.9202 31.5862 15.8448C31.4272 15.7694 31.2912 15.6554 31.1882 15.5135C31.0862 15.3715 31.0212 15.206 30.9992 15.0322C30.9772 14.8585 30.9992 14.682 31.0632 14.519C31.1072 14.1245 31.2822 13.756 31.5592 13.4714C31.8352 13.1869 32.1992 13.0024 32.5922 12.947L33.6272 12.771C33.8102 12.742 34.0372 12.881 34.0942 12.603C34.1142 12.5149 34.1122 12.4232 34.0882 12.3361C34.0642 12.249 34.0182 12.1693 33.9562 12.1041C33.8932 12.0389 33.8152 11.9902 33.7292 11.9624C33.6432 11.9347 33.5522 11.9287 33.4632 11.945C32.8762 11.9228 32.2912 12.0328 31.7522 12.267L32.0042 11.309C32.5572 11.0406 33.1732 10.9289 33.7852 10.986C34.3852 11.009 35.4392 11.199 35.2372 12.386L34.7762 14.77L34.7732 14.775ZM33.8962 13.422C33.6512 13.573 33.3742 13.6635 33.0872 13.686C32.8752 13.6852 32.6692 13.7595 32.5062 13.8959C32.3432 14.0322 32.2342 14.2218 32.1972 14.431C32.1692 14.4972 32.1582 14.5695 32.1652 14.6411C32.1722 14.7128 32.1972 14.7814 32.2382 14.8407C32.2792 14.8999 32.3352 14.9478 32.3992 14.9798C32.4642 15.0119 32.5352 15.0271 32.6072 15.024C32.8842 15.0181 33.1512 14.9187 33.3642 14.7421C33.5772 14.5655 33.7252 14.3219 33.7822 14.051L33.8962 13.422ZM35.8092 10.994H36.8762L36.7212 11.84H36.7402C36.8562 11.5716 37.0422 11.3394 37.2782 11.1681C37.5152 10.9968 37.7942 10.8928 38.0852 10.867C38.1612 10.867 38.3252 10.904 38.3952 10.911L37.9842 12.19C37.9052 12.1771 37.8242 12.1721 37.7442 12.175C37.5912 12.1625 37.4372 12.1805 37.2912 12.228C37.1452 12.2755 37.0102 12.3516 36.8942 12.4518C36.7772 12.5521 36.6822 12.6744 36.6132 12.8118C36.5452 12.9492 36.5042 13.0988 36.4942 13.252L36.0272 16.006H34.9092L35.8092 10.992V10.994ZM13.5092 14.775C13.5092 14.775 13.4022 15.302 13.3762 15.565L13.3202 16.009H12.3212C12.2992 15.7518 12.2992 15.4932 12.3212 15.236C12.1402 15.4634 11.9122 15.6499 11.6542 15.7829C11.3952 15.916 11.1112 15.9927 10.8212 16.008C10.6432 16.008 10.4682 15.9648 10.3102 15.8822C10.1522 15.7995 10.0172 15.6798 9.9162 15.5334C9.8152 15.3869 9.75119 15.2181 9.72919 15.0415C9.70719 14.8648 9.72921 14.6855 9.79221 14.519C9.83621 14.1247 10.0112 13.7563 10.2872 13.4717C10.5642 13.1872 10.9272 13.0026 11.3202 12.947L12.3562 12.771C12.4662 12.7666 12.5702 12.7263 12.6552 12.6564C12.7392 12.5865 12.7982 12.4908 12.8232 12.384C12.9182 11.836 12.4762 11.921 12.1922 11.913C11.6042 11.8912 11.0192 12.0012 10.4802 12.235L10.7332 11.277C11.2862 11.0088 11.9022 10.8975 12.5142 10.955C13.1142 10.978 14.1682 11.168 13.9662 12.355L13.5052 14.771L13.5092 14.775ZM12.6312 13.422C12.3872 13.5732 12.1102 13.6638 11.8232 13.686C11.6112 13.6852 11.4052 13.7595 11.2422 13.8959C11.0792 14.0322 10.9702 14.2218 10.9332 14.431C10.9052 14.4972 10.8942 14.5695 10.9012 14.6411C10.9082 14.7128 10.9332 14.7814 10.9742 14.8407C11.0152 14.8999 11.0712 14.9478 11.1352 14.9798C11.2002 15.0119 11.2712 15.0271 11.3432 15.024C11.6202 15.0181 11.8872 14.9187 12.1002 14.7421C12.3132 14.5655 12.4612 14.3219 12.5182 14.051L12.6312 13.422Z" fill="white"/>
<path fill-rule="evenodd" clip-rule="evenodd" d="M9.2822 15.96H8.16418L9.18719 10.268H9.16818L7.07819 15.96H5.72119L5.6962 10.268H5.67719L4.8472 15.96H3.72119L4.9462 8.96899H6.6962L6.77118 14.415H6.79019L8.77319 8.96899H10.5032L9.28519 15.96H9.2822ZM17.7052 12.06C17.2112 11.9619 16.7082 11.9253 16.2052 11.951C15.5992 12.024 15.4672 12.207 15.4292 12.419C15.2902 13.202 18.0492 12.451 17.7142 14.265C17.6272 14.77 17.3592 15.2262 16.9612 15.5484C16.5622 15.8706 16.0602 16.0368 15.5482 16.016C14.9422 16.0607 14.3342 15.9786 13.7622 15.775L13.9262 14.817C14.4882 14.9374 15.0632 14.9891 15.6372 14.971C15.8242 14.9887 16.0122 14.9507 16.1772 14.8617C16.3422 14.7727 16.4772 14.6367 16.5652 14.471C16.7172 13.645 13.9652 14.271 14.2982 12.423C14.3882 11.9694 14.6462 11.5667 15.0212 11.2963C15.3972 11.0258 15.8602 10.9078 16.3192 10.966C16.8412 10.972 17.3602 11.0508 17.8602 11.2L17.7082 12.062L17.7052 12.06ZM18.3372 11.829L18.7472 9.982H19.8652L19.6252 10.907H20.3212L20.1512 11.828H19.4512L18.9592 14.497C18.9082 14.79 18.8962 14.897 19.3502 14.897C19.4292 14.8966 19.5072 14.8892 19.5842 14.875L19.4262 15.869C19.2492 15.877 19.0472 16.001 18.8702 16.001H18.7312C18.5772 16.0336 18.4162 16.0224 18.2682 15.9686C18.1192 15.9148 17.9892 15.8207 17.8912 15.6967C17.7932 15.5728 17.7322 15.424 17.7142 15.2671C17.6972 15.1103 17.7232 14.9516 17.7912 14.809L18.3342 11.825L18.3372 11.829ZM21.0312 13.959C20.9852 14.0833 20.9712 14.2172 20.9912 14.3482C21.0102 14.4793 21.0622 14.6035 21.1412 14.7095C21.2212 14.8154 21.3252 14.8998 21.4462 14.9549C21.5662 15.01 21.6992 15.0341 21.8312 15.025C22.5272 15.0727 23.2182 14.873 23.7822 14.461L23.6052 15.383C23.0332 15.8067 22.3252 16.0069 21.6162 15.946C20.4232 15.946 19.6162 15.281 19.9932 13.262C20.1072 12.67 20.6312 10.768 22.4872 10.768C23.3272 10.768 24.4012 11.487 23.9872 13.733L23.9492 13.959H21.0312ZM22.9522 13C23.0352 12.2 22.6372 11.837 22.2772 11.837C21.9992 11.8909 21.7462 12.0334 21.5562 12.243C21.3652 12.4526 21.2482 12.7182 21.2212 13H22.9572H22.9522ZM24.6892 10.995H25.7562L25.5982 11.749H25.6212C25.7372 11.4805 25.9222 11.2483 26.1592 11.077C26.3962 10.9057 26.6752 10.8017 26.9662 10.776C27.0422 10.776 27.2062 10.813 27.2762 10.82L26.8652 12.1C26.6912 12.0733 26.5132 12.0824 26.3422 12.1267C26.1712 12.171 26.0112 12.2496 25.8722 12.3576C25.7332 12.4656 25.6172 12.6009 25.5312 12.7552C25.4462 12.9095 25.3932 13.0795 25.3752 13.255L24.9082 16.009H23.7902L24.6902 10.995H24.6892ZM31.4392 10.462C31.0252 10.1978 30.5242 10.1082 30.0442 10.213C29.4762 10.313 28.5442 10.652 28.1942 12.531C28.0172 13.489 28.1122 14.637 29.0332 14.856C29.3512 14.9349 29.6822 14.9438 30.0042 14.8819C30.3262 14.8201 30.6302 14.6891 30.8962 14.498L30.5962 15.705C30.4632 15.756 30.3432 16.093 28.9612 16.005C27.4332 15.905 26.5552 14.805 26.9782 12.51C27.4012 10.192 28.7782 8.99199 30.2612 9.01C30.5222 9.01 30.7812 9.0653 31.0192 9.1723C31.2572 9.2794 31.4702 9.4357 31.6442 9.631L31.4442 10.465L31.4392 10.462ZM41.5172 15.962H40.4212L40.5342 15.207H40.5212C40.3732 15.4352 40.1702 15.6225 39.9312 15.7515C39.6912 15.8805 39.4232 15.947 39.1512 15.945C37.8882 15.945 37.5972 14.658 37.8432 13.306C38.1592 11.606 39.1432 10.767 40.0792 10.767C40.3212 10.7523 40.5602 10.8205 40.7572 10.9603C40.9552 11.1002 41.0992 11.3033 41.1652 11.536H41.1842L41.6132 8.98599H42.7312L41.5212 15.96L41.5172 15.962ZM39.6232 14.885C39.9642 14.8339 40.2762 14.6644 40.5052 14.4062C40.7332 14.1481 40.8642 13.8177 40.8732 13.473C41.0182 12.683 40.9682 11.886 40.2042 11.886C39.8552 11.9561 39.5422 12.1459 39.3182 12.4226C39.0952 12.6992 38.9752 13.0453 38.9792 13.401C38.8712 13.978 38.9092 14.885 39.6232 14.885ZM34.7732 14.775C34.7732 14.775 34.6662 15.302 34.6412 15.565L34.5842 16.008H33.5932C33.5702 15.7512 33.5702 15.4928 33.5932 15.236C33.4072 15.4533 33.1772 15.6289 32.9192 15.7511C32.6602 15.8733 32.3792 15.9394 32.0932 15.945C31.9182 15.9546 31.7442 15.9202 31.5862 15.8448C31.4272 15.7694 31.2912 15.6554 31.1882 15.5135C31.0862 15.3715 31.0212 15.206 30.9992 15.0322C30.9772 14.8585 30.9992 14.682 31.0632 14.519C31.1072 14.1245 31.2822 13.756 31.5592 13.4714C31.8352 13.1869 32.1992 13.0024 32.5922 12.947L33.6272 12.771C33.8102 12.742 34.0372 12.881 34.0942 12.603C34.1142 12.5149 34.1122 12.4232 34.0882 12.3361C34.0642 12.249 34.0182 12.1693 33.9562 12.1041C33.8932 12.0389 33.8152 11.9902 33.7292 11.9624C33.6432 11.9347 33.5522 11.9287 33.4632 11.945C32.8762 11.9228 32.2912 12.0328 31.7522 12.267L32.0042 11.309C32.5572 11.0406 33.1732 10.9289 33.7852 10.986C34.3852 11.009 35.4392 11.199 35.2372 12.386L34.7762 14.77L34.7732 14.775ZM33.8962 13.422C33.6512 13.573 33.3742 13.6635 33.0872 13.686C32.8752 13.6852 32.6692 13.7595 32.5062 13.8959C32.3432 14.0322 32.2342 14.2218 32.1972 14.431C32.1692 14.4972 32.1582 14.5695 32.1652 14.6411C32.1722 14.7128 32.1972 14.7814 32.2382 14.8407C32.2792 14.8999 32.3352 14.9478 32.3992 14.9798C32.4642 15.0119 32.5352 15.0271 32.6072 15.024C32.8842 15.0181 33.1512 14.9187 33.3642 14.7421C33.5772 14.5655 33.7252 14.3219 33.7822 14.051L33.8962 13.422ZM35.8092 10.994H36.8762L36.7212 11.84H36.7402C36.8562 11.5716 37.0422 11.3394 37.2782 11.1681C37.5152 10.9968 37.7942 10.8928 38.0852 10.867C38.1612 10.867 38.3252 10.904 38.3952 10.911L37.9842 12.19C37.9052 12.1771 37.8242 12.1721 37.7442 12.175C37.5912 12.1625 37.4372 12.1805 37.2912 12.228C37.1452 12.2755 37.0102 12.3516 36.8942 12.4518C36.7772 12.5521 36.6822 12.6744 36.6132 12.8118C36.5452 12.9492 36.5042 13.0988 36.4942 13.252L36.0272 16.006H34.9092L35.8092 10.992V10.994ZM13.5092 14.775C13.5092 14.775 13.4022 15.302 13.3762 15.565L13.3202 16.009H12.3212C12.2992 15.7518 12.2992 15.4932 12.3212 15.236C12.1402 15.4634 11.9122 15.6499 11.6542 15.7829C11.3952 15.916 11.1112 15.9927 10.8212 16.008C10.6432 16.008 10.4682 15.9648 10.3102 15.8822C10.1522 15.7995 10.0172 15.6798 9.9162 15.5334C9.8152 15.3869 9.75119 15.2181 9.72919 15.0415C9.70719 14.8648 9.72921 14.6855 9.79221 14.519C9.83621 14.1247 10.0112 13.7563 10.2872 13.4717C10.5642 13.1872 10.9272 13.0026 11.3202 12.947L12.3562 12.771C12.4662 12.7666 12.5702 12.7263 12.6552 12.6564C12.7392 12.5865 12.7982 12.4908 12.8232 12.384C12.9182 11.836 12.4762 11.921 12.1922 11.913C11.6042 11.8912 11.0192 12.0012 10.4802 12.235L10.7332 11.277C11.2862 11.0088 11.9022 10.8975 12.5142 10.955C13.1142 10.978 14.1682 11.168 13.9662 12.355L13.5052 14.771L13.5092 14.775ZM12.6312 13.422C12.3872 13.5732 12.1102 13.6638 11.8232 13.686C11.6112 13.6852 11.4052 13.7595 11.2422 13.8959C11.0792 14.0322 10.9702 14.2218 10.9332 14.431C10.9052 14.4972 10.8942 14.5695 10.9012 14.6411C10.9082 14.7128 10.9332 14.7814 10.9742 14.8407C11.0152 14.8999 11.0712 14.9478 11.1352 14.9798C11.2002 15.0119 11.2712 15.0271 11.3432 15.024C11.6202 15.0181 11.8872 14.9187 12.1002 14.7421C12.3132 14.5655 12.4612 14.3219 12.5182 14.051L12.6312 13.422Z" fill="white"/>
</svg>
