<svg id="ps-mir" width="67" height="17" viewBox="0 0 67 17" fill="none" xmlns="http://www.w3.org/2000/svg">
<path fill-rule="evenodd" clip-rule="evenodd" d="M17.2672 17.0001V6.90006H16.8212L13.6212 17.0001H9.82117H9.81018L6.62122 6.90006H6.17816V17.0001H0.721191V3.79026e-05H6.18622C6.86722 -0.0029821 7.5312 0.213138 8.0802 0.616488C8.6292 1.01984 9.03417 1.58903 9.23517 2.24003L11.4812 10.0971H11.9542L14.2042 2.24003C14.4062 1.58707 14.8132 1.01657 15.3652 0.613098C15.9172 0.209618 16.5842 -0.0053521 17.2672 3.79026e-05H22.7322V17.0001H17.2672Z" fill="#52B461"/>
<path fill-rule="evenodd" clip-rule="evenodd" d="M38.1703 17V6.98903H37.7393L34.0123 15.376C33.7933 15.8605 33.4393 16.2716 32.9923 16.5596C32.5443 16.8477 32.0243 17.0006 31.4923 17H26.7163V3.74264e-06H32.2163V10.011H32.6673L36.4413 1.611C36.4513 1.589 36.4603 1.568 36.4703 1.547V1.541C36.6983 1.0778 37.0523 0.687874 37.4913 0.415484C37.9293 0.143104 38.4363 -0.000846257 38.9523 3.74264e-06H43.7283V17H38.1703Z" fill="#52B461"/>
<path fill-rule="evenodd" clip-rule="evenodd" d="M59.8542 12.0081H53.3022V17.0001H47.7402V8.00006H66.2213C65.6703 9.21886 64.7723 10.2486 63.6403 10.9613C62.5083 11.6739 61.1912 12.0379 59.8542 12.0081Z" fill="#52B461"/>
<path fill-rule="evenodd" clip-rule="evenodd" d="M66.571 6.00009H56.0001C51.4091 6.00009 47.5921 3.22806 46.7881 6.10352e-05H60.3491C63.8601 6.10352e-05 66.7051 2.43406 66.7051 5.03509C66.7051 5.36139 66.66 5.68609 66.571 6.00009Z" fill="#198ECA"/>
</svg>
