<svg id="ps-maestro" width="41" height="25" viewBox="0 0 41 25" fill="none" xmlns="http://www.w3.org/2000/svg">
<path d="M13.2212 25C20.1252 25 25.7212 19.4036 25.7212 12.5C25.7212 5.59644 20.1252 0 13.2212 0C6.31719 0 0.721191 5.59644 0.721191 12.5C0.721191 19.4036 6.31719 25 13.2212 25Z" fill="#D2181C"/>
<path d="M28.2212 25C35.1252 25 40.7212 19.4036 40.7212 12.5C40.7212 5.59644 35.1252 0 28.2212 0C21.3172 0 15.7212 5.59644 15.7212 12.5C15.7212 19.4036 21.3172 25 28.2212 25Z" fill="#179ADC"/>
<path fill-rule="evenodd" clip-rule="evenodd" d="M15.7212 12.5C15.7212 10.5619 16.1732 8.65045 17.0412 6.91751C17.9092 5.18457 19.1692 3.67786 20.7212 2.51703C22.2732 3.67781 23.5332 5.18451 24.4012 6.91746C25.2692 8.65041 25.7212 10.5618 25.7212 12.5C25.7212 14.4382 25.2692 16.3496 24.4012 18.0826C23.5332 19.8155 22.2732 21.3222 20.7212 22.483C19.1692 21.3222 17.9092 19.8155 17.0412 18.0825C16.1732 16.3496 15.7212 14.4381 15.7212 12.5Z" fill="#6C6BBB"/>
</svg>
