<svg id="ps-visa" width="54" height="19" viewBox="0 0 54 19" fill="none" xmlns="http://www.w3.org/2000/svg">
<path fill-rule="evenodd" clip-rule="evenodd" d="M49.631 18.0416C49.631 18.0416 49.24 15.6556 49.109 15.0576H43.456C43.3 15.5256 42.519 18.0416 42.519 18.0416H37.907L44.447 2.44656C44.6094 1.98304 44.925 1.58876 45.342 1.32878C45.758 1.0688 46.251 0.958666 46.739 1.01655H50.152L53.721 18.0416H49.631ZM47.364 7.07159L47.051 5.61555C46.843 6.26559 46.451 7.27959 46.478 7.25359C46.478 7.25359 45.071 11.0216 44.733 12.0086H48.38C48.2 11.1486 47.364 7.07159 47.364 7.07159ZM37.881 4.94155C36.8511 4.47673 35.7283 4.25435 34.599 4.29155C32.853 4.29155 32.071 5.01955 32.045 5.74655C32.045 6.55259 32.984 7.07159 34.545 7.85159C37.073 9.05159 38.245 10.5276 38.219 12.4756C38.193 15.9836 35.197 18.2696 30.559 18.2696C28.8833 18.2751 27.2214 17.9672 25.659 17.3616L26.259 13.5416L26.859 13.8276C28.1382 14.4563 29.55 14.7681 30.975 14.7366C32.252 14.7366 33.606 14.2166 33.633 13.0736C33.633 12.3206 33.06 11.7736 31.34 10.9436C29.673 10.1376 27.458 8.78659 27.484 6.34359C27.51 3.04355 30.558 0.730546 34.909 0.730546C36.2605 0.722476 37.6022 0.959656 38.869 1.43056L38.269 5.12055L37.881 4.94155ZM18.499 18.0416L21.26 1.01655H25.66L22.9 18.0416H18.5H18.499ZM7.89903 18.0416L3.97303 3.27255C3.83903 3.19455 3.69804 3.12355 3.56104 3.04855H6.18903L7.16003 3.73555L8.94104 6.45459L9.69703 8.54259L10.036 10.2676L10.505 12.6066L14.829 1.01655H19.493L12.563 18.0416H7.90004H7.89903Z" fill="#1470B0"/>
<path fill-rule="evenodd" clip-rule="evenodd" d="M5.9 5.25653C5.3727 4.84193 4.8052 4.48113 4.206 4.17953L3.955 3.23553C2.7094 2.52134 1.3812 1.96188 0 1.56954V1.04254H6.764C7.1687 1.04352 7.5609 1.18293 7.8754 1.4376C8.1899 1.69228 8.4079 2.04689 8.493 2.44253L9.957 9.89658C8.8744 8.13328 7.503 6.56478 5.9 5.25653Z" fill="#FFB927"/>
</svg>
