<svg id="arrow-down" viewBox="0 0 24 24" xmlns="http://www.w3.org/2000/svg">
	<path d="M12.7499 3.5C12.7499 3.08579 12.4142 2.75 11.9999 2.75C11.5857 2.75 11.2499 3.08579 11.2499 3.5V18.6894L6.46026 13.8997C6.16737 13.6068 5.69249 13.6068 5.3996 13.8997C5.10671 14.1926 5.10671 14.6675 5.3996 14.9604L11.4696 21.0304C11.6103 21.171 11.801 21.2501 11.9999 21.2501C12.1988 21.2501 12.3896 21.171 12.5303 21.0304L18.6003 14.9604C18.8932 14.6675 18.8932 14.1926 18.6003 13.8997C18.3074 13.6068 17.8325 13.6068 17.5396 13.8997L12.7499 18.6894V3.5Z"/>
</svg>
