<svg id="arrow-up" viewBox="0 0 24 24" xmlns="http://www.w3.org/2000/svg">
	<path d="M12.5303 2.96967C12.3896 2.82902 12.1988 2.75 11.9999 2.75C11.801 2.75 11.6103 2.82902 11.4696 2.96967L5.3996 9.03967C5.10671 9.33256 5.10671 9.80744 5.3996 10.1003C5.69249 10.3932 6.16737 10.3932 6.46026 10.1003L11.2499 5.31065V20.5C11.2499 20.9143 11.5857 21.25 11.9999 21.25C12.4142 21.25 12.7499 20.9143 12.7499 20.5V5.31067L17.5396 10.1003C17.8325 10.3932 18.3074 10.3932 18.6003 10.1003C18.8932 9.80744 18.8932 9.33256 18.6003 9.03967L12.5303 2.96967Z"/>
</svg>
