<svg id="arrow-left" viewBox="0 0 24 24" xmlns="http://www.w3.org/2000/svg">
	<path d="M10.1003 6.46038C10.3932 6.16749 10.3932 5.69262 10.1003 5.39972C9.80744 5.10683 9.33256 5.10683 9.03967 5.39972L2.96967 11.4697C2.82902 11.6104 2.75 11.8011 2.75 12.0001C2.75 12.199 2.82902 12.3897 2.96967 12.5304L9.03967 18.6004C9.33256 18.8933 9.80744 18.8933 10.1003 18.6004C10.3932 18.3075 10.3932 17.8326 10.1003 17.5397L5.31061 12.75H20.5C20.9143 12.75 21.25 12.4142 21.25 12C21.25 11.5858 20.9143 11.25 20.5 11.25H5.31071L10.1003 6.46038Z"/>
</svg>
