<svg id="bookmarks" viewBox="0 0 256 256" xmlns="http://www.w3.org/2000/svg">
	<path d="M192 32H96a8 8 0 0 0-8 8v24h72a8 8 0 0 1 8 8v97.146L200 192V40a8 8 0 0 0-8-8z" opacity=".2"/>
	<path d="M192 24H96a16.018 16.018 0 0 0-16 16v16H64a16.018 16.018 0 0 0-16 16v152a8 8 0 0 0 12.65 6.51l51.343-36.679 51.358 36.679A8 8 0 0 0 176 224v-39.31l19.35 13.82A8 8 0 0 0 208 192V40a16.018 16.018 0 0 0-16-16zm-32 184.456-43.358-30.966a8 8 0 0 0-9.3 0L64 208.453V72h96zm32-32-16-11.428V72a16.018 16.018 0 0 0-16-16H96V40h96z"/>
</svg>