<svg id="cancel" viewBox="0 0 24 24" xmlns="http://www.w3.org/2000/svg">
	<path fill-rule="evenodd" clip-rule="evenodd" d="M12 1.25C6.06294 1.25 1.25 6.06294 1.25 12C1.25 17.9371 6.06294 22.75 12 22.75C17.9371 22.75 22.75 17.9371 22.75 12C22.75 6.06294 17.9371 1.25 12 1.25ZM6.011 4.95034C7.62475 3.57804 9.71567 2.75 12 2.75C17.1086 2.75 21.25 6.89137 21.25 12C21.25 14.2843 20.422 16.3753 19.0497 17.989L6.011 4.95034ZM4.95034 6.011C3.57804 7.62475 2.75 9.71567 2.75 12C2.75 17.1086 6.89137 21.25 12 21.25C14.2843 21.25 16.3753 20.422 17.989 19.0497L4.95034 6.011Z"/>
</svg>
