<svg id="cart-add" viewBox="0 0 24 24" xmlns="http://www.w3.org/2000/svg">
	<path d="M12 13.25C12.4142 13.25 12.75 13.5858 12.75 14V15.25H14C14.4142 15.25 14.75 15.5858 14.75 16C14.75 16.4142 14.4142 16.75 14 16.75H12.75V18C12.75 18.4142 12.4142 18.75 12 18.75C11.5858 18.75 11.25 18.4142 11.25 18V16.75H10C9.58579 16.75 9.25 16.4142 9.25 16C9.25 15.5858 9.58579 15.25 10 15.25H11.25V14C11.25 13.5858 11.5858 13.25 12 13.25Z"/>
	<path fill-rule="evenodd" clip-rule="evenodd" d="M15.7211 1.4704C15.4286 1.17711 14.9537 1.17645 14.6604 1.46894C14.3671 1.76143 14.3665 2.2363 14.6589 2.5296L17.2223 5.1H6.77774L9.34106 2.5296C9.63355 2.2363 9.6329 1.76143 9.3396 1.46894C9.0463 1.17645 8.57143 1.1771 8.27894 1.4704L4.65934 5.1H4.22C3.62803 5.1 2.8469 5.12085 2.23138 5.53311C1.53518 5.99942 1.25 6.80189 1.25 7.85C1.25 8.99331 1.50815 9.86454 2.27425 10.3061C2.45441 10.4099 2.64197 10.4761 2.82475 10.5188L4.17 18.7621C4.33732 19.7765 4.64199 20.808 5.39883 21.5745C6.17682 22.3623 7.30817 22.75 8.86 22.75H14.89C16.539 22.75 17.6769 22.3907 18.4288 21.6028C19.1487 20.8485 19.3797 19.8247 19.5566 18.9011L21.1637 10.5215C21.3501 10.4788 21.5418 10.4121 21.7257 10.3061C22.4918 9.86454 22.75 8.99331 22.75 7.85C22.75 6.80189 22.4648 5.99942 21.7686 5.53311C21.1531 5.12085 20.372 5.1 19.78 5.1H19.3407L15.7211 1.4704ZM19.6213 10.6H4.35784L5.65 18.5179C5.80268 19.4432 6.04311 20.0921 6.46617 20.5205C6.86818 20.9277 7.55183 21.25 8.86 21.25H14.89C16.351 21.25 16.9981 20.9293 17.3437 20.5672C17.7213 20.1715 17.9003 19.5753 18.0834 18.6189L19.6213 10.6ZM3.06612 6.77939C2.95982 6.85058 2.75 7.04811 2.75 7.85C2.75 8.84937 2.98342 8.98354 3.02242 9.00597C3.08083 9.03963 3.19013 9.07576 3.40918 9.09186C3.57619 9.10413 3.74828 9.10284 3.96202 9.10124C4.04154 9.10064 4.12708 9.1 4.22 9.1H19.78C19.8729 9.1 19.9582 9.10064 20.0377 9.10124C20.2515 9.10284 20.4238 9.10413 20.5908 9.09186C20.8099 9.07576 20.9183 9.0401 20.9767 9.00644C21.0158 8.98402 21.25 8.84937 21.25 7.85C21.25 7.04811 21.0402 6.85058 20.9339 6.77939C20.7469 6.65415 20.418 6.6 19.78 6.6H4.22C3.58197 6.6 3.2531 6.65415 3.06612 6.77939Z"/>
</svg>
