<svg id="copy" viewBox="0 0 24 24" xmlns="http://www.w3.org/2000/svg">
	<path fill-rule="evenodd" clip-rule="evenodd" d="M5.78061 16.7165C6.19109 16.7422 6.67461 16.7482 7.25297 16.7496C7.25784 17.3394 7.2711 17.8474 7.30712 18.2883C7.36541 19.0017 7.48701 19.6053 7.76785 20.1565C8.22325 21.0502 8.94991 21.7769 9.84368 22.2323C10.3949 22.5131 10.9985 22.6347 11.7119 22.693C12.4095 22.75 13.275 22.75 14.3671 22.75H15.6332C16.7253 22.75 17.5908 22.75 18.2884 22.693C19.0018 22.6347 19.6054 22.5131 20.1566 22.2323C21.0504 21.7769 21.777 21.0502 22.2324 20.1565C22.5133 19.6053 22.6349 19.0017 22.6931 18.2883C22.7501 17.5907 22.7501 16.7251 22.7501 15.633V14.367C22.7501 13.2748 22.7501 12.4094 22.6931 11.7117C22.6349 10.9983 22.5133 10.3947 22.2324 9.84355C21.777 8.94978 21.0504 8.22312 20.1566 7.76772C19.6054 7.48689 19.0018 7.36528 18.2884 7.30699C17.8475 7.27097 17.3396 7.25772 16.7497 7.25284C16.7483 6.67448 16.7423 6.19096 16.7166 5.78047C16.6824 5.23362 16.6111 4.76642 16.4457 4.32682C15.9639 3.04662 14.9535 2.03629 13.6733 1.55445C13.2337 1.389 12.7665 1.31775 12.2197 1.28352C11.6842 1.25 11.0244 1.25 10.1919 1.25001H8.36695H8.36694C7.27489 1.25 6.40945 1.25 5.71187 1.307C4.99848 1.36528 4.39486 1.48689 3.84368 1.76773C2.94991 2.22313 2.22325 2.94978 1.76786 3.84355C1.48702 4.39473 1.36541 4.99835 1.30712 5.71174C1.25013 6.40934 1.25013 7.27492 1.25014 8.36701V10.1917C1.25013 11.0242 1.25013 11.684 1.28365 12.2195C1.31788 12.7664 1.38913 13.2336 1.55458 13.6732C2.03642 14.9534 3.04676 15.9637 4.32695 16.4456C4.76655 16.611 5.23375 16.6823 5.78061 16.7165ZM12.126 2.78059C11.6428 2.75035 11.0299 2.75001 10.1668 2.75001L8.40014 2.75001C7.26766 2.75001 6.4634 2.75059 5.83402 2.80201C5.21339 2.85272 4.82914 2.9491 4.52467 3.10424C3.91314 3.41583 3.41595 3.91301 3.10437 4.52454C2.94923 4.82901 2.85285 5.21326 2.80214 5.83389C2.75072 6.46327 2.75014 7.26753 2.75014 8.40001L2.75014 10.1667C2.75014 11.0298 2.75048 11.6427 2.78072 12.1258C2.81059 12.603 2.86752 12.9032 2.95844 13.1448C3.28812 14.0207 3.9794 14.712 4.85533 15.0417C5.0969 15.1326 5.39715 15.1896 5.87431 15.2194C6.24075 15.2424 6.68185 15.2481 7.25013 15.2495V14.367V14.367C7.25013 13.2748 7.25012 12.4094 7.30712 11.7117C7.36541 10.9983 7.48701 10.3947 7.76785 9.84355C8.22325 8.94978 8.94991 8.22312 9.84368 7.76772C10.3949 7.48689 10.9985 7.36528 11.7119 7.30699C12.4095 7.24999 13.275 7.25 14.3671 7.25H15.2497C15.2482 6.68172 15.2425 6.24062 15.2196 5.87418C15.1897 5.39702 15.1328 5.09677 15.0418 4.8552C14.7122 3.97927 14.0209 3.28799 13.1449 2.95831C12.9034 2.86739 12.6031 2.81046 12.126 2.78059ZM18.1663 8.80201C17.5369 8.75059 16.7326 8.75 15.6001 8.75H14.4001C13.2677 8.75 12.4634 8.75059 11.834 8.80201C11.2134 8.85272 10.8291 8.9491 10.5247 9.10423C9.91314 9.41582 9.41595 9.91301 9.10436 10.5245C8.94922 10.829 8.85285 11.2133 8.80214 11.8339C8.75072 12.4633 8.75013 13.2675 8.75013 14.4V15.6C8.75013 16.7325 8.75072 17.5367 8.80214 18.1661C8.85285 18.7868 8.94923 19.171 9.10436 19.4755C9.41595 20.087 9.91314 20.5842 10.5247 20.8958C10.8291 21.0509 11.2134 21.1473 11.834 21.198C12.4634 21.2494 13.2677 21.25 14.4001 21.25H15.6001C16.7326 21.25 17.5369 21.2494 18.1663 21.198C18.7869 21.1473 19.1711 21.0509 19.4756 20.8958C20.0871 20.5842 20.5843 20.087 20.8959 19.4755C21.051 19.171 21.1474 18.7868 21.1981 18.1661C21.2495 17.5367 21.2501 16.7325 21.2501 15.6V14.4C21.2501 13.2675 21.2495 12.4633 21.1981 11.8339C21.1474 11.2133 21.051 10.829 20.8959 10.5245C20.5843 9.91301 20.0871 9.41582 19.4756 9.10423C19.1711 8.9491 18.7869 8.85272 18.1663 8.80201Z"/>
</svg>
