<svg id="double-box" viewBox="0 0 24 24" xmlns="http://www.w3.org/2000/svg">
	<g id="Vector 2" opacity="0.4">
		<path d="M20.1 6.93998C20.1 7.47998 19.81 7.96995 19.35 8.21995L17.61 9.15995L16.13 9.94999L13.06 11.61C12.73 11.79 12.37 11.88 12 11.88C11.63 11.88 11.27 11.79 10.94 11.61L4.64996 8.21995C4.18996 7.96995 3.89996 7.47998 3.89996 6.93998C3.89996 6.39998 4.18996 5.90995 4.64996 5.65995L6.61996 4.59996L8.18997 3.74998L10.94 2.27C11.6 1.91 12.4 1.91 13.06 2.27L19.35 5.65995C19.81 5.90995 20.1 6.39998 20.1 6.93998Z"/>
		<path d="M9.89996 12.79L4.04996 9.86001C3.59996 9.63001 3.07996 9.66001 2.64996 9.92001C2.21996 10.18 1.96997 10.64 1.96997 11.14V16.67C1.96997 17.63 2.49995 18.49 3.35995 18.92L9.20996 21.8401C9.40996 21.9401 9.62998 21.99 9.84998 21.99C10.11 21.99 10.37 21.92 10.6 21.77C11.03 21.51 11.28 21.05 11.28 20.55V15.02C11.29 14.08 10.76 13.22 9.89996 12.79Z"/>
		<path d="M22.03 11.15V16.68C22.03 17.63 21.5 18.49 20.64 18.92L14.79 21.85C14.59 21.95 14.37 22 14.15 22C13.89 22 13.63 21.93 13.39 21.78C12.97 21.52 12.71 21.06 12.71 20.56V15.04C12.71 14.08 13.24 13.22 14.1 12.79L16.25 11.72L19.95 9.87C20.4 9.64 20.92 9.66 21.35 9.93C21.77 10.19 22.03 10.65 22.03 11.15Z"/>
	</g>
	<g id="Vector 1">
		<path d="M17.61 9.15997L16.13 9.95001L6.62 4.59998L8.19 3.75L17.37 8.92999C17.47 8.98999 17.55 9.06997 17.61 9.15997Z"/>
		<path d="M17.75 10.97V13.24C17.75 13.65 17.41 13.99 17 13.99C16.59 13.99 16.25 13.65 16.25 13.24V11.72L17.75 10.97Z"/>
	</g>
</svg>
