<svg id="filled-eye" viewBox="0 0 24 24" xmlns="http://www.w3.org/2000/svg">
	<path d="M11.9999 9.75C10.7573 9.75 9.74991 10.7574 9.74991 12C9.74991 13.2426 10.7573 14.25 11.9999 14.25C13.2425 14.25 14.2499 13.2426 14.2499 12C14.2499 10.7574 13.2425 9.75 11.9999 9.75Z"/>
	<path fill-rule="evenodd" clip-rule="evenodd" d="M12 3.25C8.28446 3.25 5.5928 4.71662 3.83476 6.54227C2.10654 8.33695 1.25 10.515 1.25 12C1.25 13.485 2.10654 15.663 3.83476 17.4577C5.5928 19.2834 8.28446 20.75 12 20.75C15.7155 20.75 18.4072 19.2834 20.1652 17.4577C21.8935 15.663 22.75 13.485 22.75 12C22.75 10.515 21.8935 8.33695 20.1652 6.54227C18.4072 4.71662 15.7155 3.25 12 3.25ZM8.24991 12C8.24991 9.92893 9.92884 8.25 11.9999 8.25C14.071 8.25 15.7499 9.92893 15.7499 12C15.7499 14.0711 14.071 15.75 11.9999 15.75C9.92884 15.75 8.24991 14.0711 8.24991 12Z"/>
</svg>
