<svg id="filled-eye-slash" viewBox="0 0 24 24" xmlns="http://www.w3.org/2000/svg">
	<path fill-rule="evenodd" clip-rule="evenodd" d="M3.53033 2.46967C3.23744 2.17678 2.76256 2.17678 2.46967 2.46967C2.17678 2.76256 2.17678 3.23744 2.46967 3.53033L4.68861 5.74927C2.36419 7.67946 1.25 10.3097 1.25 12C1.25 13.485 2.10654 15.663 3.83476 17.4577C5.5928 19.2834 8.28446 20.75 12 20.75C14.4611 20.75 16.4782 20.1062 18.0737 19.1343L20.4697 21.5303C20.7626 21.8232 21.2374 21.8232 21.5303 21.5303C21.8232 21.2374 21.8232 20.7626 21.5303 20.4697L3.53033 2.46967ZM14.068 15.1286L12.97 14.0306C12.6762 14.1712 12.3473 14.2499 11.9999 14.2499C10.7573 14.2499 9.74991 13.2425 9.74991 11.9999C9.74991 11.6525 9.82862 11.3236 9.96919 11.0298L8.87121 9.93187C8.47857 10.5247 8.24991 11.2356 8.24991 11.9999C8.24991 14.071 9.92884 15.7499 11.9999 15.7499C12.7642 15.7499 13.4751 15.5213 14.068 15.1286Z"/>
	<path d="M9.19036 5.09792C10.0305 4.87735 10.9651 4.75 12 4.75C15.2845 4.75 17.5928 6.03338 19.0848 7.58273C20.6065 9.16305 21.25 10.985 21.25 12C21.25 12.7242 20.9206 13.886 20.1383 15.0918C20.0385 15.2456 19.9317 15.3994 19.8179 15.5524C19.5707 15.8847 19.6397 16.3546 19.9721 16.6018C20.3044 16.849 20.7743 16.78 21.0215 16.4476C21.1545 16.2688 21.2795 16.0887 21.3966 15.9082C22.2895 14.5321 22.75 13.0899 22.75 12C22.75 10.515 21.8935 8.33695 20.1652 6.54227C18.4072 4.71662 15.7155 3.25 12 3.25C10.8409 3.25 9.77804 3.3928 8.80946 3.64709C8.62754 3.69485 8.44903 3.74652 8.27391 3.80189C7.87897 3.92675 7.66002 4.34814 7.78489 4.74309C7.90975 5.13803 8.33114 5.35697 8.72609 5.23211C8.87761 5.1842 9.03235 5.1394 9.19036 5.09792Z"/>
</svg>
