<svg id="filled-bag" viewBox="0 0 24 24" xmlns="http://www.w3.org/2000/svg">
	<path d="M18.84 5.58006H19.24C20.13 5.58006 22 5.58006 22 8.14006C22 9.82006 21.36 10.4201 20.52 10.6201C20.24 10.6801 19.95 10.7001 19.64 10.7001H4.36C4.06 10.7001 3.75 10.6901 3.46 10.6201C3.15 10.5501 2.86 10.4201 2.62 10.1701C2.2 9.75006 2 9.11006 2 8.14006C2 5.58006 3.87 5.58006 4.77 5.58006H5.17L8.54 2.20006C8.82 1.93006 9.26 1.93006 9.53 2.20006C9.8 2.48006 9.8 2.92006 9.53 3.19006L7.14 5.58006H16.86L14.47 3.19006C14.2 2.91006 14.2 2.47006 14.47 2.20006C14.75 1.93006 15.19 1.93006 15.46 2.20006L18.84 5.58006Z"/>
	<path fill-rule="evenodd" clip-rule="evenodd" d="M4.86997 12H19.05C19.68 12 20.15 12.57 20.03 13.19L19.02 18.42C18.66 20.31 18.06 22 14.69 22H9.07997C5.74997 22 4.99997 20.02 4.71997 18.3L3.87997 13.16C3.77997 12.55 4.24997 12 4.86997 12ZM9.91997 19.15C10.3 19.15 10.61 18.84 10.61 18.45V15.15C10.61 14.77 10.3 14.45 9.91997 14.45C9.52997 14.45 9.21997 14.77 9.21997 15.15V18.45C9.21997 18.84 9.52997 19.15 9.91997 19.15ZM14.19 19.15C14.58 19.15 14.89 18.84 14.89 18.45V15.15C14.89 14.77 14.58 14.45 14.19 14.45C13.81 14.45 13.49 14.77 13.49 15.15V18.45C13.49 18.84 13.81 19.15 14.19 19.15Z"/>
</svg>
