<svg id="filled-car" viewBox="0 0 14 14" xmlns="http://www.w3.org/2000/svg">
	<path fill-rule="evenodd" clip-rule="evenodd" d="M9.19787 0.729126C8.72373 0.729122 8.34126 0.72912 8.03157 0.754422C7.7127 0.780475 7.43262 0.835518 7.17349 0.96755C6.76189 1.17727 6.42724 1.51192 6.21752 1.92352C6.08549 2.18265 6.03044 2.46273 6.00439 2.7816C5.99723 2.86925 5.9921 2.96273 5.98841 3.06246L4.37216 3.06245C3.67337 3.06229 3.22353 3.06219 2.81144 3.19379C2.44753 3.31 2.11158 3.50022 1.82469 3.75248C1.49983 4.03813 1.26848 4.42392 0.909088 5.02321L0.721415 5.33601C0.541192 5.6363 0.424968 5.82996 0.341666 6.03956C0.267855 6.22528 0.214352 6.41844 0.182093 6.61566C0.145686 6.83825 0.145713 7.0641 0.145755 7.41433L0.145758 8.74996L0.145763 8.75212V9.23438C0.145757 9.54597 0.145752 9.80605 0.163111 10.0185C0.181217 10.2401 0.220365 10.4482 0.320607 10.6449C0.474404 10.9467 0.71981 11.1922 1.02165 11.3459C1.06936 11.3703 1.11774 11.391 1.16681 11.4087C1.16667 11.3974 1.1666 11.3862 1.1666 11.375C1.1666 9.92521 2.34185 8.74996 3.7916 8.74996C5.24134 8.74996 6.4166 9.92521 6.4166 11.375C6.4166 11.4239 6.41526 11.4725 6.41261 11.5208H7.58724C7.5846 11.4725 7.58326 11.4239 7.58326 11.375C7.58326 9.92521 8.75852 8.74996 10.2083 8.74996C11.5951 8.74996 12.7307 9.82542 12.8267 11.1878C13.1619 10.9782 13.4351 10.6808 13.6157 10.3264C13.7477 10.0673 13.8027 9.78719 13.8288 9.46832C13.8541 9.15862 13.8541 8.77618 13.8541 8.30203V3.94789C13.8541 3.47374 13.8541 3.0913 13.8288 2.7816C13.8027 2.46273 13.7477 2.18265 13.6157 1.92352C13.4059 1.51192 13.0713 1.17727 12.6597 0.96755C12.4006 0.835518 12.1205 0.780475 11.8016 0.754422C11.4919 0.729119 11.1095 0.729122 10.6354 0.729126H9.19787ZM1.31723 6.0464C1.42413 6.0206 1.5343 6.00577 1.64804 5.99647C1.8605 5.97912 2.12057 5.97912 2.43214 5.97913H5.0166C5.26884 5.97913 5.43171 5.97879 5.55567 5.96866C5.67452 5.95895 5.71858 5.94246 5.74022 5.93144C5.82254 5.8895 5.88947 5.82257 5.93141 5.74025C5.94243 5.71862 5.95892 5.67455 5.96863 5.5557C5.97875 5.43174 5.9791 5.26887 5.9791 5.01663V3.93746H4.44703C3.64733 3.93746 3.34361 3.94238 3.07763 4.02732C2.82864 4.10683 2.59878 4.23698 2.40248 4.40958C2.1928 4.59395 2.03233 4.85186 1.62088 5.5376L1.49044 5.75501C1.41837 5.87512 1.36216 5.96911 1.31723 6.0464Z"/>
	<path d="M1.89576 11.375C1.89576 10.3279 2.74456 9.47913 3.7916 9.47913C4.83864 9.47913 5.68743 10.3279 5.68743 11.375C5.68743 12.422 4.83864 13.2708 3.7916 13.2708C2.74456 13.2708 1.89576 12.422 1.89576 11.375Z"/>
	<path d="M10.2083 9.47913C9.16122 9.47913 8.31243 10.3279 8.31243 11.375C8.31243 12.422 9.16122 13.2708 10.2083 13.2708C11.2553 13.2708 12.1041 12.422 12.1041 11.375C12.1041 10.3279 11.2553 9.47913 10.2083 9.47913Z"/>
</svg>
