<svg id="filled-check" viewBox="0 0 14 14" xmlns="http://www.w3.org/2000/svg">
	<path fill-rule="evenodd" clip-rule="evenodd" d="M0.729156 6.99996C0.729156 3.53667 3.5367 0.729126 6.99999 0.729126C10.4633 0.729126 13.2708 3.53667 13.2708 6.99996C13.2708 10.4632 10.4633 13.2708 6.99999 13.2708C3.5367 13.2708 0.729156 10.4632 0.729156 6.99996ZM9.93435 5.85098C10.1052 5.68013 10.1052 5.40312 9.93435 5.23227C9.76349 5.06141 9.48649 5.06141 9.31563 5.23227L6.41666 8.13124L5.26768 6.98227C5.09683 6.81141 4.81982 6.81141 4.64896 6.98227C4.47811 7.15312 4.47811 7.43013 4.64896 7.60099L6.1073 9.05932C6.18934 9.14137 6.30062 9.18746 6.41666 9.18746C6.53269 9.18746 6.64397 9.14137 6.72602 9.05932L9.93435 5.85098Z"/>
</svg>
