<svg id="filled-lock" viewBox="0 0 48 48" fill="none" xmlns="http://www.w3.org/2000/svg">
	<path d="M6 28.8C6 24.3196 6 22.0794 6.87195 20.3681C7.63893 18.8628 8.86278 17.6389 10.3681 16.8719C12.0794 16 14.3196 16 18.8 16H29.2C33.6804 16 35.9206 16 37.6319 16.8719C39.1372 17.6389 40.3611 18.8628 41.1281 20.3681C42 22.0794 42 24.3196 42 28.8V31.2C42 35.6804 42 37.9206 41.1281 39.6319C40.3611 41.1372 39.1372 42.3611 37.6319 43.1281C35.9206 44 33.6804 44 29.2 44H18.8C14.3196 44 12.0794 44 10.3681 43.1281C8.86278 42.3611 7.63893 41.1372 6.87195 39.6319C6 37.9206 6 35.6804 6 31.2V28.8Z" fill="#E80B3A"/>
	<path d="M24.75 28C24.75 27.5858 24.4142 27.25 24 27.25C23.5858 27.25 23.25 27.5858 23.25 28V32C23.25 32.4142 23.5858 32.75 24 32.75C24.4142 32.75 24.75 32.4142 24.75 32V28Z" fill="black"/>
	<path fill-rule="evenodd" clip-rule="evenodd" d="M23.5661 3.25H30C32.6234 3.25 34.75 5.37665 34.75 8V9C34.75 9.41421 34.4142 9.75 34 9.75C33.5858 9.75 33.25 9.41421 33.25 9V8C33.25 6.20507 31.7949 4.75 30 4.75H23.6C21.9075 4.75 20.6832 4.75058 19.7203 4.82925C18.7662 4.90721 18.1349 5.05809 17.6166 5.32222C16.6287 5.82555 15.8256 6.6287 15.3222 7.61655C15.0581 8.13493 14.9072 8.76615 14.8293 9.72029C14.7506 10.6832 14.75 11.9075 14.75 13.6V15.2903C15.8716 15.25 17.1902 15.25 18.7655 15.25H29.2344C31.4455 15.25 33.1509 15.25 34.5155 15.3615C35.8959 15.4743 36.9934 15.7049 37.9724 16.2037C39.6188 17.0426 40.9574 18.3812 41.7963 20.0276C42.2951 21.0066 42.5257 22.1041 42.6385 23.4845C42.75 24.8491 42.75 26.5545 42.75 28.7656V31.2344C42.75 33.4455 42.75 35.1509 42.6385 36.5155C42.5257 37.8959 42.2951 38.9934 41.7963 39.9724C40.9574 41.6188 39.6188 42.9574 37.9724 43.7963C36.9934 44.2951 35.8959 44.5257 34.5155 44.6385C33.1509 44.75 31.4456 44.75 29.2345 44.75H18.7656C16.5545 44.75 14.8491 44.75 13.4845 44.6385C12.1041 44.5257 11.0066 44.2951 10.0276 43.7963C8.38116 42.9574 7.04259 41.6188 6.20369 39.9724C5.70487 38.9934 5.47427 37.8959 5.36148 36.5155C5.24999 35.1509 5.25 33.4455 5.25 31.2344V28.7656C5.25 26.5545 5.24999 24.8491 5.36148 23.4845C5.47427 22.1041 5.70487 21.0066 6.20369 20.0276C7.04259 18.3812 8.38116 17.0426 10.0276 16.2037C10.9505 15.7335 11.9787 15.5016 13.25 15.3821V13.5661C13.25 11.9146 13.25 10.6292 13.3342 9.59814C13.4198 8.55124 13.5959 7.70065 13.9857 6.93556C14.6329 5.66547 15.6655 4.63285 16.9356 3.98571C17.7007 3.59588 18.5512 3.41977 19.5981 3.33424C20.6292 3.24999 21.9146 3.25 23.5661 3.25ZM13.6067 16.8565C12.3191 16.9617 11.4409 17.1671 10.7086 17.5402C9.34439 18.2353 8.23528 19.3444 7.5402 20.7086C7.16708 21.4409 6.96171 22.3191 6.8565 23.6067C6.75058 24.9031 6.75 26.5474 6.75 28.8V31.2C6.75 33.4526 6.75058 35.0969 6.8565 36.3933C6.96171 37.6809 7.16708 38.5591 7.5402 39.2914C8.23528 40.6556 9.34439 41.7647 10.7086 42.4598C11.4409 42.8329 12.3191 43.0383 13.6067 43.1435C14.9031 43.2494 16.5474 43.25 18.8 43.25H29.2C31.4526 43.25 33.0969 43.2494 34.3933 43.1435C35.6809 43.0383 36.5591 42.8329 37.2914 42.4598C38.6556 41.7647 39.7647 40.6556 40.4598 39.2914C40.8329 38.5591 41.0383 37.6809 41.1435 36.3933C41.2494 35.0969 41.25 33.4526 41.25 31.2V28.8C41.25 26.5474 41.2494 24.9031 41.1435 23.6067C41.0383 22.3191 40.8329 21.4409 40.4598 20.7086C39.7647 19.3444 38.6556 18.2353 37.2914 17.5402C36.5591 17.1671 35.6809 16.9617 34.3933 16.8565C33.0969 16.7506 31.4526 16.75 29.2 16.75H18.8C16.5474 16.75 14.9031 16.7506 13.6067 16.8565Z" fill="black"/>
</svg>
