<svg id="heart" viewBox="0 0 20 20" xmlns="http://www.w3.org/2000/svg">
	<path fill-rule="evenodd" clip-rule="evenodd" d="M6.30008 3.20825C4.08984 3.20825 2.29175 5.00884 2.29175 7.24158C2.29175 9.95035 3.54232 12.1207 5.11611 13.7332C6.69744 15.3534 8.5667 16.3682 9.68534 16.7501L9.69144 16.7522L9.69143 16.7522C9.7454 16.7713 9.85726 16.7916 10.0001 16.7916C10.1429 16.7916 10.2548 16.7713 10.3087 16.7522L10.3148 16.7501L10.3148 16.7501C11.4335 16.3682 13.3027 15.3534 14.8841 13.7332C16.4578 12.1207 17.7084 9.95035 17.7084 7.24158C17.7084 5.00884 15.9103 3.20825 13.7001 3.20825C12.3982 3.20825 11.2309 3.84085 10.5018 4.82255C10.3839 4.98132 10.1978 5.07492 10.0001 5.07492C9.80232 5.07492 9.61623 4.98132 9.49832 4.82255C8.76887 3.84033 7.60964 3.20825 6.30008 3.20825ZM1.04175 7.24158C1.04175 4.32433 3.39365 1.95825 6.30008 1.95825C7.74736 1.95825 9.05389 2.54657 10.0003 3.49552C10.9488 2.54628 12.2602 1.95825 13.7001 1.95825C16.6065 1.95825 18.9584 4.32433 18.9584 7.24158C18.9584 10.3662 17.509 12.8333 15.7786 14.6063C14.057 16.3702 12.0196 17.4883 10.7215 17.9321C10.4929 18.0122 10.2312 18.0416 10.0001 18.0416C9.76901 18.0416 9.50729 18.0122 9.2787 17.9321C7.98054 17.4883 5.94316 16.3702 4.22156 14.6063C2.49118 12.8333 1.04175 10.3662 1.04175 7.24158Z"/>
</svg>