<svg id="hourglass" viewBox="0 0 14 14" xmlns="http://www.w3.org/2000/svg">
	<path d="M8.90254 5.98401C8.52544 6.29826 8.3369 6.45539 8.25415 6.63675C8.14888 6.86745 8.14888 7.13247 8.25415 7.36317C8.3369 7.54453 8.52544 7.70166 8.90254 8.0159L9.38956 8.42175C9.86586 8.81867 10.2354 9.12664 10.5053 9.37365C10.7682 9.61427 10.9819 9.83627 11.1016 10.0633C11.7027 11.2039 11.1921 12.6143 10.0001 13.1057C9.76279 13.2035 9.4565 13.2373 9.1005 13.2538C8.73505 13.2708 8.25401 13.2708 7.63406 13.2708H6.98255C6.11111 13.2708 5.43506 13.2708 4.9253 13.2378C4.42858 13.2057 4.00377 13.1397 3.69332 12.9501C2.81972 12.4165 2.43301 11.3484 2.76252 10.3792C2.87961 10.0348 3.16374 9.71212 3.52476 9.36944C3.89524 9.01777 4.41457 8.58499 5.08401 8.02713L5.09747 8.01591C5.47458 7.70166 5.66313 7.54453 5.74588 7.36317C5.85113 7.13247 5.85113 6.86745 5.74588 6.63675C5.66313 6.45539 5.47457 6.29826 5.09747 5.98401L4.61036 5.57808C4.13411 5.18121 3.76458 4.87326 3.49471 4.62627C3.23181 4.38565 3.01811 4.16365 2.89843 3.93657C2.29729 2.79601 2.80794 1.38558 3.99991 0.89422C4.23722 0.796394 4.54352 0.76265 4.89952 0.746107C5.26494 0.729126 5.74593 0.729126 6.36582 0.729126H7.01748C7.88893 0.729125 8.56496 0.729123 9.07472 0.76211C9.57144 0.794253 9.99625 0.860204 10.3067 1.04983C11.1803 1.58345 11.567 2.65155 11.2375 3.62075C11.1204 3.96517 10.8363 4.28779 10.4753 4.63048C10.1048 4.98216 9.58542 5.41495 8.91594 5.97285L8.90254 5.98401Z"/>
</svg>
