<svg id="hourglass" viewBox="0 0 24 24" xmlns="http://www.w3.org/2000/svg">
	<path d="M15.4598 2.80341C14.6403 2.75038 13.53 2.75 12 2.75H10.9344C9.84589 2.75 9.05621 2.7502 8.46879 2.77749C7.861 2.80574 7.57108 2.8611 7.42865 2.91981C6.20261 3.42521 5.67738 4.87594 6.29569 6.04908C6.36752 6.18537 6.55481 6.41351 7.00365 6.8243C7.43743 7.22132 8.04396 7.72702 8.88014 8.42383L9.48014 8.92383C9.79835 9.18901 9.84134 9.66193 9.57617 9.98014C9.31099 10.2983 8.83807 10.3413 8.51986 10.0762L7.90347 9.56251C7.08704 8.88215 6.45355 8.35424 5.99091 7.93082C5.54023 7.51833 5.17389 7.13775 4.96872 6.74847C3.9382 4.79323 4.81359 2.37535 6.85698 1.53302C7.2638 1.36532 7.78888 1.30747 8.39916 1.27911C9.02565 1.25 9.85028 1.25 10.9131 1.25H12.03C13.5239 1.25 14.6828 1.25 15.5566 1.30654C16.4082 1.36165 17.1364 1.4747 17.6686 1.79978C19.1662 2.71455 19.8291 4.54558 19.2643 6.20706C19.0635 6.7975 18.5765 7.35057 17.9576 7.93803C17.3225 8.54091 16.4321 9.28283 15.2845 10.2392L9.69879 14.894C8.52339 15.8735 7.67073 16.5845 7.07511 17.1499C6.45901 17.7347 6.22675 18.0673 6.1559 18.2758C5.81698 19.2727 6.21473 20.3713 7.11329 20.9201C7.30115 21.0349 7.69252 21.1417 8.54022 21.1966C9.35974 21.2496 10.47 21.25 12 21.25H13.0656C14.1541 21.25 14.9438 21.2498 15.5312 21.2225C16.139 21.1943 16.4289 21.1389 16.5714 21.0802C17.7974 20.5748 18.3226 19.1241 17.7043 17.9509C17.6325 17.8146 17.4452 17.5865 16.9964 17.1757C16.5626 16.7787 15.956 16.273 15.1199 15.5762L14.5199 15.0762C14.2017 14.811 14.1587 14.3381 14.4238 14.0199C14.689 13.7017 15.1619 13.6587 15.4801 13.9238L16.0965 14.4374C16.9129 15.1178 17.5464 15.6457 18.0091 16.0692C18.4598 16.4817 18.8261 16.8623 19.0313 17.2515C20.0618 19.2068 19.1864 21.6246 17.143 22.467C16.7362 22.6347 16.2111 22.6925 15.6008 22.7209C14.9744 22.75 14.1497 22.75 13.0869 22.75H11.9701C10.4762 22.75 9.31723 22.75 8.44336 22.6935C7.59184 22.6384 6.86358 22.5253 6.33139 22.2002C4.83379 21.2854 4.17086 19.4544 4.73573 17.7929C4.93646 17.2025 5.42355 16.6494 6.04242 16.062C6.67755 15.4591 7.56785 14.7172 8.7155 13.7608L14.3012 9.10605C15.4766 8.12655 16.3293 7.4155 16.9249 6.85012C17.541 6.26529 17.7732 5.93265 17.8441 5.72424C18.183 4.72735 17.7853 3.62873 16.8867 3.07987C16.6989 2.96512 16.3075 2.85827 15.4598 2.80341Z"/>
</svg>
