<svg id="image-plus" viewBox="0 0 20 20" xmlns="http://www.w3.org/2000/svg">
	<path fill-rule="evenodd" clip-rule="evenodd" d="M9.55585 1.04102H9.99999C10.3452 1.04102 10.625 1.32084 10.625 1.66602C10.625 2.01119 10.3452 2.29102 9.99999 2.29102H9.58332C8.21247 2.29102 7.22087 2.29148 6.44025 2.35351C5.66663 2.41498 5.15385 2.53399 4.73164 2.7422C3.86788 3.16816 3.1688 3.86724 2.74284 4.731C2.53463 5.1532 2.41562 5.66599 2.35415 6.43961C2.29212 7.22023 2.29166 8.21183 2.29166 9.58268V10.3327C2.29166 11.7431 2.29214 12.7634 2.3577 13.5658C2.37629 13.7933 2.39985 13.9987 2.42917 14.1863L5.21786 11.3976C5.52835 11.0871 5.78771 10.8277 6.01702 10.6329C6.25634 10.4295 6.50303 10.2605 6.79946 10.1627C7.25466 10.0126 7.74549 10.009 8.20286 10.1524C8.50069 10.2458 8.74986 10.4111 8.99216 10.6109C9.22432 10.8023 9.48746 11.0578 9.8025 11.3637L12.0653 13.5606L12.5337 13.0922C12.8486 12.7773 13.1114 12.5145 13.3436 12.3173C13.5858 12.1117 13.8356 11.941 14.1356 11.8435C14.5958 11.694 15.0916 11.694 15.5519 11.8435C15.8519 11.941 16.1016 12.1116 16.3437 12.3172C16.5759 12.5143 16.8386 12.777 17.1534 13.0918L17.644 13.5823L17.6458 13.5591C17.7079 12.7785 17.7083 11.7869 17.7083 10.416V9.99935C17.7083 9.65417 17.9881 9.37435 18.3333 9.37435C18.6785 9.37435 18.9583 9.65417 18.9583 9.99935V10.4435C18.9583 11.7811 18.9583 12.8222 18.8919 13.6581C18.8245 14.5067 18.6857 15.1972 18.3782 15.8206C17.8306 16.9311 16.9318 17.8299 15.8212 18.3776C15.1978 18.685 14.5074 18.8238 13.6587 18.8913C12.8228 18.9577 11.7817 18.9577 10.4441 18.9577H9.63836C8.2622 18.9577 7.19099 18.9577 6.33177 18.8875C5.45936 18.8162 4.75053 18.6695 4.11296 18.3446C3.05455 17.8053 2.19403 16.9448 1.65474 15.8864L1.63942 15.856C1.52397 15.7395 1.46373 15.589 1.45867 15.4369C1.26674 14.9162 1.16684 14.3406 1.11185 13.6676C1.04165 12.8083 1.04165 11.7372 1.04166 10.361V9.55521C1.04165 8.21762 1.04165 7.1765 1.10808 6.3406C1.17551 5.49198 1.31432 4.80155 1.62175 4.17814C2.16941 3.06758 3.06823 2.16877 4.17878 1.62111C4.80219 1.31368 5.49262 1.17487 6.34124 1.10743C7.17714 1.04101 8.21826 1.04101 9.55585 1.04102ZM4.68045 17.2308C3.92219 16.8445 3.29452 16.2462 2.8724 15.5108L6.08396 12.2993C6.41684 11.9664 6.64043 11.7435 6.82647 11.5854C7.00686 11.4321 7.11112 11.3762 7.19099 11.3498C7.3979 11.2816 7.62101 11.28 7.8289 11.3451C7.90915 11.3703 8.01423 11.4246 8.19687 11.5753C8.38522 11.7306 8.61208 11.9502 8.94983 12.2781L11.6331 14.8832L14.3044 17.5545C14.0849 17.5932 13.8393 17.623 13.5597 17.6452C12.7791 17.7072 11.7875 17.7077 10.4167 17.7077H9.66666C8.25621 17.7077 7.23597 17.7072 6.43356 17.6416C5.63845 17.5767 5.11244 17.4509 4.68045 17.2308ZM17.2571 15.2677C16.8863 16.0197 16.3085 16.6468 15.5952 17.0776L12.9556 14.438L13.3996 13.994C13.7371 13.6566 13.9639 13.4304 14.1526 13.2702C14.3357 13.1147 14.4413 13.0585 14.5219 13.0324C14.7311 12.9644 14.9564 12.9644 15.1656 13.0324C15.2462 13.0585 15.3518 13.1147 15.5348 13.2701C15.7234 13.4302 15.9501 13.6563 16.2874 13.9936L17.3506 15.0568C17.3217 15.1299 17.2906 15.2 17.2571 15.2677Z"/>
	<path d="M15.625 2.49935C15.625 2.15417 15.3452 1.87435 15 1.87435C14.6548 1.87435 14.375 2.15417 14.375 2.49935V4.37435H12.5C12.1548 4.37435 11.875 4.65417 11.875 4.99935C11.875 5.34453 12.1548 5.62435 12.5 5.62435H14.375V7.49935C14.375 7.84453 14.6548 8.12435 15 8.12435C15.3452 8.12435 15.625 7.84453 15.625 7.49935V5.62435H17.5C17.8452 5.62435 18.125 5.34453 18.125 4.99935C18.125 4.65417 17.8452 4.37435 17.5 4.37435H15.625V2.49935Z"/>
</svg>