<svg id="info" viewBox="0 0 24 25" xmlns="http://www.w3.org/2000/svg">
	<path d="M12 10.6665C12.4142 10.6665 12.75 11.0023 12.75 11.4165V16.4165C12.75 16.8307 12.4142 17.1665 12 17.1665C11.5858 17.1665 11.25 16.8307 11.25 16.4165V11.4165C11.25 11.0023 11.5858 10.6665 12 10.6665Z"/>
	<path d="M12 9.4165C12.5523 9.4165 13 8.96879 13 8.4165C13 7.86422 12.5523 7.4165 12 7.4165C11.4477 7.4165 11 7.86422 11 8.4165C11 8.96879 11.4477 9.4165 12 9.4165Z"/>
	<path fill-rule="evenodd" clip-rule="evenodd" d="M1.25 12.4165C1.25 6.47944 6.06294 1.6665 12 1.6665C17.9371 1.6665 22.75 6.47944 22.75 12.4165C22.75 18.3536 17.9371 23.1665 12 23.1665C6.06294 23.1665 1.25 18.3536 1.25 12.4165ZM12 3.1665C6.89137 3.1665 2.75 7.30787 2.75 12.4165C2.75 17.5251 6.89137 21.6665 12 21.6665C17.1086 21.6665 21.25 17.5251 21.25 12.4165C21.25 7.30787 17.1086 3.1665 12 3.1665Z"/>
</svg>
