<svg id="logo-white" viewBox="0 0 775 370" fill="none" xmlns="http://www.w3.org/2000/svg">
	<path d="M687.202 240.609C682.133 240.609 676.82 240.609 671.424 240.609C668.89 240.609 668.236 239.792 667.5 236.606C665.947 230.316 664.394 223.945 662.759 217.655C662.186 215.531 661.532 213.407 660.633 211.447C659.08 207.934 656.219 205.81 652.458 205.565C647.472 205.157 642.403 205.484 637.089 205.484C637.089 206.954 636.926 208.261 636.926 209.486V236.443C636.926 240.609 636.926 240.609 632.839 240.609C628.915 240.609 624.991 240.609 621.148 240.609C617.96 240.609 617.633 240.2 617.551 236.933V162.68C617.551 161.536 617.551 160.311 617.551 159.167C617.96 155.001 619.922 153.123 624.173 153.123C635.945 153.123 647.635 152.959 659.325 153.286C663.167 153.368 667.091 154.348 670.607 155.9C688.51 163.497 688.183 188.82 675.185 197.723C674.531 198.132 673.958 198.622 672.977 199.357C679.517 202.625 680.825 208.833 682.378 214.796C684.177 221.576 685.975 228.437 687.61 235.217C688.019 236.933 689.082 238.73 687.283 240.69M637.008 189.8C643.221 189.8 648.943 189.8 654.665 189.8C655.401 189.8 656.219 189.555 656.954 189.391C662.513 188.003 665.211 184.245 664.639 178.527C664.067 173.462 660.633 170.358 655.156 170.277C649.842 170.195 644.447 170.277 639.215 170.277C638.561 170.277 637.989 170.44 637.171 170.603V189.881L637.008 189.8ZM594.089 216.92C589.593 231.868 579.456 240.282 563.597 241.997C557.793 242.651 551.907 242.569 546.103 241.262C535.639 238.893 528.118 232.767 523.703 222.964C521.573 218.233 519.861 211.855 519.289 206.055C518.308 195.599 518.635 185.225 522.477 175.26C528.2 160.148 540.626 151.652 556.73 151.57C561.88 151.57 566.867 151.897 571.772 153.531C584.525 157.697 591.637 167.009 594.662 179.507C597.755 192.053 597.783 204.464 594.089 216.92ZM539.154 202.788C539.399 207.199 540.217 211.61 542.179 215.613C544.304 220.105 547.656 223.128 552.643 224.271C563.27 226.64 571.2 222.229 574.388 211.773C576.35 205.484 576.268 199.5 576.268 192.414C575.941 187.758 575.451 183.101 573.407 178.69C570.627 172.564 565.886 169.133 559.183 168.725C552.643 168.316 547.492 170.848 543.896 176.321C542.588 178.364 541.361 180.651 540.789 183.02C539.035 190.704 539.154 195.663 539.154 202.788ZM298.485 153.041C298.076 154.756 297.913 156.063 297.504 157.207C288.92 182.53 280.255 207.934 271.589 233.257C271.262 234.237 270.854 235.217 270.445 236.116C269.137 238.975 266.93 240.527 263.741 240.527C260.063 240.527 256.466 240.527 252.787 240.527C249.681 240.527 247.555 239.138 246.165 236.443C245.511 235.054 244.857 233.584 244.449 232.113C236.192 207.771 227.935 183.347 219.679 158.922C219.107 157.289 218.78 155.491 218.207 153.449C219.515 153.204 220.333 152.959 221.15 152.959C225.483 152.959 229.734 152.959 234.067 152.959C237.827 152.959 237.909 152.959 239.053 156.553C242.895 168.97 246.819 181.386 250.58 193.802C252.951 201.481 255.158 209.241 257.447 217.001C257.61 217.655 257.937 218.308 258.51 219.86C259.245 217.736 259.654 216.43 260.063 215.123C265.867 195.518 271.671 175.995 277.557 156.472C278.62 153.041 278.783 152.959 282.135 152.959C287.449 152.959 292.762 152.959 298.648 152.959L298.485 153.041ZM382.932 240.527C372.55 237.995 364.947 231.542 361.105 221.576C355.464 206.709 354.973 191.515 360.696 176.567C367.645 158.596 383.667 150.182 402.388 151.979C407.783 152.551 413.179 153.123 418.247 155.41C419.392 155.982 420.618 156.635 421.762 157.125C423.479 157.942 423.888 159.412 423.152 161.046C421.762 164.395 420.209 167.663 418.819 171.012C417.92 172.972 416.449 172.727 414.814 172.319C411.871 171.502 408.928 170.277 405.821 169.868C402.143 169.378 398.3 169.051 394.54 169.46C388.981 170.113 384.812 173.544 381.869 178.282C379.743 181.794 378.435 185.552 377.781 189.636C376.719 196.253 376.8 202.87 378.354 209.404C380.806 219.289 387.591 224.516 397.728 224.843C403.696 225.007 409.337 223.455 414.814 221.494C418.738 220.133 421.544 221.249 423.234 224.843C424.133 226.885 425.196 228.846 426.013 230.888C427.076 233.42 426.831 234.319 424.46 235.708C419.719 238.567 414.568 240.364 409.091 241.181C400.244 242.418 391.664 242.748 382.932 240.527ZM698.591 155.52C698.217 154.304 699.192 153.123 700.465 153.123C706.446 153.123 711.693 153.123 716.877 153.123C718.839 153.123 719.411 154.675 720.065 156.145C723.089 162.516 726.114 168.806 729.221 175.096C731.183 179.344 732.981 183.673 734.943 187.921C735.352 188.819 735.842 189.718 736.66 191.188C737.477 189.473 738.05 188.248 738.622 186.941C743.2 177.057 747.941 167.173 752.356 157.207C753.745 153.939 755.707 152.714 759.223 152.959C763 153 767.076 152.959 771 152.959C771.344 152.959 771.674 152.974 772.012 152.997C773.391 153.09 774.309 154.555 773.801 155.84C773.527 156.532 773.259 157.173 772.956 157.779C764.618 173.708 756.28 189.555 747.859 205.484C746.797 207.526 746.306 209.486 746.306 211.773C746.306 219.942 746.306 228.192 746.306 236.361C746.306 240.445 746.306 240.527 742.137 240.527C738.377 240.527 734.534 240.527 730.774 240.527C727.504 240.527 726.932 240.037 726.85 236.606C726.85 228.437 726.85 220.187 726.85 212.018C726.85 209.568 726.359 207.444 725.215 205.32C716.631 189.555 708.129 173.708 699.627 157.942C699.194 157.172 698.88 156.461 698.591 155.52ZM506.291 167.336C506.291 168.725 505.473 169.46 504.084 169.542C502.776 169.542 501.468 169.542 500.16 169.542H481.276V234.809C481.276 235.708 481.276 236.606 481.276 237.586C481.112 240.119 480.785 240.527 478.333 240.609C473.755 240.609 469.177 240.609 464.599 240.609C462.637 240.609 461.738 239.71 461.738 237.75C461.738 236.688 461.738 235.707 461.738 234.646V169.542H451.274C447.595 169.542 443.916 169.542 440.319 169.542C438.766 169.542 437.377 169.133 437.295 167.336C437.295 163.364 437.295 159.328 437.295 155.454C437.295 154.558 437.882 153.832 438.776 153.774C448.198 153.161 496.307 153.444 504.958 153.579C505.784 153.591 506.291 154.152 506.291 154.978C506.291 158.251 506.291 166.341 506.291 167.336ZM334.209 197.315V238.321C334.209 239.874 333.392 240.772 331.838 240.69H317.369C315.816 240.69 314.998 239.792 314.835 238.321C314.835 237.423 314.835 236.524 314.835 235.626V158.35C314.835 157.452 314.835 156.553 314.835 155.573C314.998 154.103 315.816 153.204 317.369 153.204C322.192 153.204 327.015 153.204 331.838 153.204C333.473 153.204 334.209 154.021 334.209 155.573V197.315Z" fill="white"/>
	<path d="M395.766 101.905C400.426 107.133 400.099 114.403 402.388 121.183H390.861C390.044 117.916 389.226 114.73 388.491 111.626C386.937 105.254 385.466 104.356 378.354 105.826V121.101H367.236C367.236 109.23 367.236 97.3579 367.236 85.4862C367.236 84.751 367.236 83.9341 367.236 83.1173C367.399 81.1568 368.462 80.0132 370.506 80.0132C376.637 80.0132 382.768 79.6864 388.899 80.1766C397.483 80.83 402.306 87.6917 399.69 95.3702C398.954 97.5758 397.238 99.5362 395.766 101.905ZM378.354 96.3505C381.133 96.3505 383.504 96.5138 385.793 96.3505C387.755 96.1871 388.899 94.6351 388.899 93.0013C388.899 91.2859 387.673 89.9789 385.711 89.8155C383.34 89.6522 380.888 89.8155 378.354 89.8155V96.4322V96.3505ZM335.354 122.327C333.392 122.163 331.43 122.163 329.549 121.755C323.664 120.366 319.74 116.527 318.023 110.727C316.388 105.091 316.224 99.3729 317.451 93.7365C320.23 81.4018 329.631 78.0527 339.359 79.5231C347.044 80.6667 351.622 85.4045 353.42 92.8379C354.728 98.3926 354.728 103.947 353.338 109.42C351.376 117.344 345.736 122.49 335.354 122.327ZM329.468 107.787C330.612 110.727 332.656 112.198 335.681 112.198C338.542 112.198 340.422 110.891 341.485 107.95C343.202 103.13 343.12 98.2293 341.485 93.4098C340.586 90.7141 338.624 89.0804 335.681 88.9987C332.656 88.9987 330.694 90.6324 329.795 93.2464C328.306 97.561 327.548 103.471 329.468 107.787ZM257.447 90.6324C253.359 90.0606 249.926 89.5705 246.411 89.1621C244.776 88.9987 242.895 88.7536 241.996 90.7958C241.424 92.0211 242.65 93.4097 245.266 94.5534C248.618 96.0237 252.051 97.3307 255.24 99.0461C259.491 101.333 261.78 104.928 261.698 109.829C261.698 115.792 258.918 119.794 253.032 121.265C245.511 123.225 238.072 122.653 230.878 119.549C228.262 118.487 228.181 117.997 229.162 115.383C229.816 113.586 230.633 111.789 231.369 110.074C235.375 110.891 239.135 111.708 242.977 112.279C244.367 112.524 245.838 112.524 247.228 112.034C248.127 111.789 249.19 110.727 249.435 109.829C249.599 109.094 248.863 107.868 248.127 107.296C246.983 106.48 245.593 106.071 244.285 105.418C241.261 103.947 238.072 102.722 235.211 100.925C226.709 95.5336 230.061 83.8524 236.764 80.9934C244.612 77.6443 252.215 79.0329 259.981 82.4638C259.082 85.3228 258.264 87.8551 257.365 90.5507L257.447 90.6324ZM283.934 107.787V121.101H273.306C273.143 119.876 272.897 118.814 272.897 117.671V85.6495C272.897 84.8327 272.897 84.0975 273.061 83.2806C273.47 80.6667 274.124 79.9315 276.821 79.9315C282.299 79.9315 287.776 79.7681 293.253 79.9315C300.937 80.1765 306.006 85.2411 306.333 92.7563C306.66 100.598 301.755 106.316 293.989 107.051C290.8 107.378 287.53 107.46 284.015 107.705L283.934 107.787ZM284.097 98.6377C286.713 98.6377 288.92 98.8011 291.127 98.6377C293.416 98.3926 294.97 96.2688 294.888 93.9816C294.888 91.6943 293.498 89.9789 291.209 89.7339C288.92 89.5705 286.631 89.7339 284.179 89.7339V98.7194L284.097 98.6377ZM431.736 89.0804V120.938C428.139 121.673 424.705 121.428 420.863 120.938C420.536 110.319 420.863 99.863 420.618 89.0804H409.827V80.0132C420.618 79.6047 431.409 79.9315 442.363 79.8498C443.753 82.8722 443.099 85.6495 442.854 88.9987H431.736V89.0804Z" fill="white"/>
	<path d="M245.675 282.024C245.675 282.024 246.247 281.86 246.411 281.779C247.473 283.494 248.536 285.209 249.517 286.925C253.85 294.032 258.264 301.138 262.597 308.245C263.66 310.042 265.131 310.451 266.93 309.96C268.565 309.47 268.319 307.918 268.319 306.693C268.319 296.646 268.319 286.598 268.319 276.551C268.319 276.061 268.074 275.57 267.911 274.917C266.848 274.917 265.867 275.08 264.477 275.162V303.18C262.761 301.71 261.698 300.076 260.717 298.443C256.302 291.254 251.888 283.984 247.555 276.796C246.574 275.162 245.348 274.672 243.631 274.999C241.669 275.407 241.915 276.959 241.833 278.43C241.833 288.477 241.833 298.443 241.833 308.49C241.833 308.98 242.078 309.47 242.323 310.124C243.386 310.124 244.367 309.96 245.675 309.879V282.105V282.024ZM747.696 275.08C747.696 284.638 747.696 293.95 747.205 303.262C746.143 302.282 745.489 301.22 744.835 300.158C740.093 292.48 735.434 284.801 730.856 277.122C729.875 275.489 728.73 274.509 726.768 274.917C724.561 275.407 725.133 277.286 725.051 278.756C725.051 288.232 725.051 297.789 725.051 307.265C725.051 308.163 725.297 308.98 725.46 309.879H728.73V291.091C728.73 288.069 728.73 285.046 728.812 281.942C730.202 282.922 730.937 283.984 731.591 285.046C736.251 292.561 740.829 300.158 745.489 307.673C747.205 310.451 747.287 310.451 751.129 309.47V275.162H747.778L747.696 275.08ZM332.411 275.08V307.346C328.814 307.428 325.626 307.755 322.437 307.592C317.205 307.347 314.671 304.896 313.935 299.668C313.772 298.198 313.772 296.809 313.772 295.339C313.772 289.049 313.772 282.841 313.772 276.632C313.772 276.142 313.608 275.652 313.363 274.917C312.219 274.999 311.156 275.08 310.011 275.244C310.011 283.249 310.011 290.928 310.011 298.524C310.011 300.076 310.42 301.628 310.829 303.099C311.973 306.856 314.426 309.307 318.432 310.124C322.683 311.022 326.934 311.022 331.184 310.369C335.762 309.634 336.171 309.062 336.171 304.651C336.171 295.829 336.171 286.925 336.171 278.103C336.171 277.123 336.008 276.061 335.926 274.999H332.411V275.08ZM389.472 309.797C389.472 304.406 389.472 299.26 389.472 294.032C389.472 288.804 389.308 283.494 389.635 277.858H400.181V275.08H374.92C375.002 276.142 375.084 276.959 375.247 278.103H385.629V310.042C387.101 309.96 388.082 309.797 389.472 309.715V309.797ZM571.772 275.162H546.838C546.838 276.061 546.838 276.714 546.838 277.286C546.838 277.531 547.165 277.613 547.656 278.184H557.139V309.96C558.529 309.96 559.591 309.797 561.063 309.715V277.939H571.69V275.08L571.772 275.162ZM504.002 275.162V310.124C505.31 310.124 506.373 309.96 507.435 309.879V275.162H504.002ZM615.099 309.96C615.099 298.116 615.099 286.68 615.017 275.162H611.665V309.96H615.099ZM457.323 293.378C460.675 296.401 463.454 303.834 463.618 309.879C463.291 309.879 462.964 310.124 462.555 310.124C461.901 310.124 461.329 310.124 460.593 310.124C460.348 309.797 460.103 309.47 459.939 309.144C459.122 306.366 458.386 303.589 457.568 300.893C456.097 295.829 454.626 294.685 449.23 294.603H442.69C441.954 299.831 442.69 304.896 442.118 310.042H438.766C438.684 309.062 438.521 308.163 438.521 307.265C438.521 297.871 438.521 288.477 438.521 279.165C438.521 275.325 438.766 275.162 442.445 275.08C445.47 275.08 448.494 275.08 451.437 275.08C456.915 275.08 460.593 277.368 461.983 281.534C463.454 286.108 461.983 289.947 457.323 293.541V293.378ZM442.69 291.254C446.369 291.254 449.884 291.499 453.318 291.254C456.424 291.009 458.304 288.64 458.468 285.455C458.713 282.105 457.16 279.573 454.217 279.001C450.456 278.266 446.614 278.511 442.69 278.838V291.336V291.254ZM685.812 292.561C685.158 295.829 684.749 299.26 683.605 302.364C681.724 307.51 677.8 310.206 672.242 310.369C671.179 310.369 670.198 310.369 669.135 310.369C663.413 310.206 659.57 307.347 657.69 302.037C655.646 296.482 655.483 290.764 657.2 285.209C659.979 275.979 667.01 273.12 675.92 275.489C682.133 277.123 684.177 282.432 685.158 288.232C685.403 289.621 685.321 291.091 685.403 292.48C685.567 292.48 685.73 292.48 685.894 292.561H685.812ZM681.724 292.806C681.316 290.274 681.234 287.905 680.662 285.7C679.354 280.472 676.247 277.939 671.342 277.776C666.601 277.613 662.922 279.982 661.205 284.719C659.407 289.784 659.489 294.93 660.96 300.076C662.35 304.814 665.62 307.265 670.361 307.346C675.266 307.51 678.863 304.978 680.335 300.24C681.07 297.789 681.234 295.175 681.724 292.725V292.806Z" fill="white"/>
	<path d="M0 39.5C0 39.5 68.3612 75.0303 101.878 92.3478C101.878 94.6351 101.96 96.6772 101.878 98.8011C100.979 114.648 99.9981 130.495 99.0171 146.343C98.3631 156.635 97.8726 166.846 97.2186 177.138C96.2376 193.476 95.2567 209.895 94.2757 226.232C93.3764 241.181 92.3954 256.129 91.7414 271.078C91.5779 274.917 90.5152 277.858 87.8175 280.798C60.5774 310.363 34.5824 341.59 6.15019 370C6.64068 368.04 6.88593 366.814 7.21293 365.752C22.3365 315.188 37.5418 264.625 52.7471 214.061C53.5646 211.283 53.4829 208.833 52.6654 206.137C35.3312 150.879 20.9371 93.494 0 39.5ZM144.47 31.3281C144.47 39.4967 142.426 47.0936 137.93 53.8735C135.232 58.1212 131.798 61.6337 127.302 64.0026C118.882 68.5771 109.644 67.1884 102.941 60.4084C98.5266 55.9157 95.9106 50.361 94.8479 44.2345C92.8042 32.1449 94.8479 20.8722 102.451 10.9881C104.086 8.8643 106.129 6.90382 108.255 5.2701C117.901 -2.08168 129.918 -0.529641 137.439 9.02767C142.589 15.5626 144.47 23.1594 144.47 31.3281Z" fill="white"/>
	<path d="M117.165 194.783C118.31 174.279 119.536 153.776 120.681 133.191C121.416 121.673 121.989 110.074 122.561 98.4743C122.561 96.1054 123.378 94.39 125.177 92.7563L213.793 11.7233L116.5 206.5C116.857 202.606 116.893 198.684 117.165 194.783Z" fill="white"/>
</svg>
