<svg id="mail-glass" viewBox="0 0 64 64" fill="none" xmlns="http://www.w3.org/2000/svg">
	<g clip-path="url(#clip0_55_2182)">
		<path d="M38.8945 12.2656C36.8011 11.054 34.3108 10.7335 31.9788 11.3583L14.7993 15.9616C9.92839 17.2667 7.05307 22.2495 8.35311 27.1013L12.0342 40.8393C13.3342 45.6911 18.3331 48.564 23.1866 47.2635L40.3662 42.6602C45.2197 41.3597 48.1141 36.3719 46.8141 31.5201L43.133 17.782C42.5086 15.4518 40.9888 13.4733 38.8945 12.2656Z" fill="url(#paint0_linear_55_2182)"/>
		<path opacity="0.32" d="M38.8945 12.2656C36.8011 11.054 34.3108 10.7335 31.9788 11.3583L14.7993 15.9616C9.92839 17.2667 7.05307 22.2495 8.35311 27.1013L12.0342 40.8393C13.3342 45.6911 18.3331 48.564 23.1866 47.2635L40.3662 42.6602C45.2197 41.3597 48.1141 36.3719 46.8141 31.5201L43.133 17.782C42.5086 15.4518 40.9888 13.4733 38.8945 12.2656Z" fill="url(#paint1_linear_55_2182)"/>
		<g opacity="0.5" filter="url(#filter0_f_55_2182)">
			<path d="M34.1361 16.7838C32.8153 15.974 31.2532 15.744 29.7979 16.1339L19.0768 19.0066C16.037 19.8211 14.2769 23.0584 15.1304 26.244L17.5473 35.2639C18.4009 38.4494 21.5547 40.37 24.5836 39.5584L35.3047 36.6857C38.3336 35.8741 40.1057 32.6336 39.2522 29.4481L36.8353 20.4282C36.4253 18.8982 35.4575 17.5911 34.1361 16.7838Z" fill="#FF829D"/>	
		</g>
		<g filter="url(#filter1_b_55_2182)">
			<mask id="path-4-inside-1_55_2182" fill="white">
				<path d="M55.024 21.3261C53.117 19.4151 50.5248 18.3501 47.8301 18.3501H27.9786C22.3501 18.3501 17.8107 22.8915 17.8107 28.4979V44.3727C17.8107 49.9791 22.3702 54.5204 27.9786 54.5204H47.8301C53.4385 54.5204 58 49.9791 58 44.3727V28.4979C58 25.8052 56.933 23.2331 55.024 21.3261Z"/>
			</mask>
			<path d="M55.024 21.3261C53.117 19.4151 50.5248 18.3501 47.8301 18.3501H27.9786C22.3501 18.3501 17.8107 22.8915 17.8107 28.4979V44.3727C17.8107 49.9791 22.3702 54.5204 27.9786 54.5204H47.8301C53.4385 54.5204 58 49.9791 58 44.3727V28.4979C58 25.8052 56.933 23.2331 55.024 21.3261Z" fill="#FAB2C2" fill-opacity="0.32"/>
			<path d="M54.3161 22.0325C54.7062 22.4234 55.3394 22.4241 55.7304 22.034C56.1213 21.6439 56.122 21.0107 55.7318 20.6198L54.3161 22.0325ZM55.7307 20.6186C55.34 20.2283 54.7068 20.2286 54.3165 20.6194C53.9262 21.0101 53.9265 21.6433 54.3173 22.0336L55.7307 20.6186ZM55.7318 20.6198C53.6356 18.5191 50.788 17.3501 47.8301 17.3501V19.3501C50.2616 19.3501 52.5984 20.3111 54.3161 22.0325L55.7318 20.6198ZM47.8301 17.3501H27.9786V19.3501H47.8301V17.3501ZM27.9786 17.3501C21.799 17.3501 16.8107 22.338 16.8107 28.4979H18.8107C18.8107 23.4449 22.9012 19.3501 27.9786 19.3501V17.3501ZM16.8107 28.4979V44.3727H18.8107V28.4979H16.8107ZM16.8107 44.3727C16.8107 50.5338 21.8204 55.5204 27.9786 55.5204V53.5204C22.92 53.5204 18.8107 49.4243 18.8107 44.3727H16.8107ZM27.9786 55.5204H47.8301V53.5204H27.9786V55.5204ZM47.8301 55.5204C53.9881 55.5204 59 50.534 59 44.3727H57C57 49.4241 52.8889 53.5204 47.8301 53.5204V55.5204ZM59 44.3727V28.4979H57V44.3727H59ZM59 28.4979C59 25.5393 57.8271 22.7128 55.7307 20.6186L54.3173 22.0336C56.0388 23.7534 57 26.0711 57 28.4979H59Z" fill="white" fill-opacity="0.3" mask="url(#path-4-inside-1_55_2182)"/>
		</g>
		<g filter="url(#filter2_bd_55_2182)">
			<path d="M51.1881 31.331L51.0273 31.4918L41.9626 38.746C40.8394 39.6301 39.4508 40.1124 38.0261 40.1124C36.5974 40.1124 35.233 39.6301 34.1077 38.746L24.9646 31.6124L24.7014 31.3511C24.2412 30.7483 24.3015 29.8842 24.844 29.3417C25.3645 28.7991 26.2285 28.7388 26.8535 29.201L35.8961 36.4351C37.0797 37.4016 38.7495 37.4016 39.915 36.4351L48.9757 29.201C49.2791 28.9197 49.681 28.777 50.103 28.7991C50.5029 28.8393 50.8867 29.0222 51.166 29.3216C51.6684 29.9043 51.6684 30.7483 51.1881 31.331Z" fill="url(#paint2_linear_55_2182)"/>
		</g>
	</g>
	<defs>
		<filter id="filter0_f_55_2182" x="-1.08484" y="-0.0512695" width="56.5514" height="55.7954" filterUnits="userSpaceOnUse" color-interpolation-filters="sRGB">
			<feFlood flood-opacity="0" result="BackgroundImageFix"/>
			<feBlend mode="normal" in="SourceGraphic" in2="BackgroundImageFix" result="shape"/>
			<feGaussianBlur stdDeviation="8" result="effect1_foregroundBlur_55_2182"/>
		</filter>
		<filter id="filter1_b_55_2182" x="2.81073" y="3.3501" width="70.1893" height="66.1704" filterUnits="userSpaceOnUse" color-interpolation-filters="sRGB">
			<feFlood flood-opacity="0" result="BackgroundImageFix"/>
			<feGaussianBlur in="BackgroundImageFix" stdDeviation="7.5"/>
			<feComposite in2="SourceAlpha" operator="in" result="effect1_backgroundBlur_55_2182"/>
			<feBlend mode="normal" in="SourceGraphic" in2="effect1_backgroundBlur_55_2182" result="shape"/>
		</filter>
		<filter id="filter2_bd_55_2182" x="9.39282" y="13.7969" width="57.1528" height="41.3154" filterUnits="userSpaceOnUse" color-interpolation-filters="sRGB">
			<feFlood flood-opacity="0" result="BackgroundImageFix"/>
			<feGaussianBlur in="BackgroundImageFix" stdDeviation="7.5"/>
			<feComposite in2="SourceAlpha" operator="in" result="effect1_backgroundBlur_55_2182"/>
			<feColorMatrix in="SourceAlpha" type="matrix" values="0 0 0 0 0 0 0 0 0 0 0 0 0 0 0 0 0 0 127 0" result="hardAlpha"/>
			<feOffset dx="5" dy="5"/>
			<feGaussianBlur stdDeviation="5"/>
			<feColorMatrix type="matrix" values="0 0 0 0 1 0 0 0 0 0.337255 0 0 0 0 0.188235 0 0 0 0.5 0"/>
			<feBlend mode="normal" in2="effect1_backgroundBlur_55_2182" result="effect2_dropShadow_55_2182"/>
			<feBlend mode="normal" in="SourceGraphic" in2="effect2_dropShadow_55_2182" result="shape"/>
		</filter>
		<linearGradient id="paint0_linear_55_2182" x1="6" y1="18.3193" x2="46.3967" y2="44.5661" gradientUnits="userSpaceOnUse">
			<stop stop-color="#FF829D"/>
			<stop offset="1" stop-color="#FF305D"/>
		</linearGradient>
		<linearGradient id="paint1_linear_55_2182" x1="6" y1="18.3193" x2="46.3967" y2="44.5661" gradientUnits="userSpaceOnUse">
			<stop stop-color="#D71740"/>
			<stop offset="1" stop-color="#9B0425"/>
		</linearGradient>
		<linearGradient id="paint2_linear_55_2182" x1="49.6205" y1="30.8402" x2="19.5269" y2="33.1947" gradientUnits="userSpaceOnUse">
			<stop stop-color="white"/>
			<stop offset="1" stop-color="white" stop-opacity="0.2"/>
		</linearGradient>
		<clipPath id="clip0_55_2182">
			<rect width="64" height="64" fill="white"/>
		</clipPath>
	</defs>
</svg>
