<svg id="menu-color-wallet" viewBox="0 0 24 24" fill="none" xmlns="http://www.w3.org/2000/svg">
	<path id="Tone" d="M15.6 6H2V15.6C2 17.8402 2 18.9603 2.43597 19.816C2.81947 20.5686 3.43139 21.1805 4.18404 21.564C5.03969 22 6.15979 22 8.4 22H15.6C17.8402 22 18.9603 22 19.816 21.564C20.5686 21.1805 21.1805 20.5686 21.564 19.816C21.8979 19.1606 21.9761 18.3501 21.9944 17H21C19.3431 17 18 15.6569 18 14C18 12.3431 19.3431 11 21 11H21.9944C21.9761 9.6499 21.8979 8.8394 21.564 8.18404C21.1805 7.43139 20.5686 6.81947 19.816 6.43597C18.9603 6 17.8402 6 15.6 6Z" fill="#E80B3A"/>
	<path id="Vector" fill-rule="evenodd" clip-rule="evenodd" d="M17.3846 5.26277L16.52 4.11003C16.4971 4.07948 16.4745 4.04931 16.4521 4.01951C15.8135 3.16758 15.4021 2.61886 14.8713 2.21607C14.4021 1.86004 13.8708 1.59439 13.3044 1.43265C12.6637 1.24966 11.9779 1.2498 10.9131 1.25001C10.8759 1.25002 10.8382 1.25003 10.8 1.25003H4C2.48122 1.25003 1.25 2.48125 1.25 4.00003L1.25 15.633C1.24999 16.7252 1.24999 17.5907 1.30699 18.2883C1.36527 19.0017 1.48688 19.6053 1.76772 20.1565C2.22312 21.0503 2.94978 21.7769 3.84355 22.2323C4.39472 22.5131 4.99834 22.6348 5.71173 22.693C6.40935 22.75 7.27484 22.75 8.36698 22.75H15.633C16.7252 22.75 17.5906 22.75 18.2883 22.693C19.0017 22.6348 19.6053 22.5131 20.1565 22.2323C21.0502 21.7769 21.7769 21.0503 22.2323 20.1565C22.5131 19.6053 22.6347 19.0017 22.693 18.2883C22.75 17.5907 22.75 16.7252 22.75 15.6331V12.367C22.75 11.2749 22.75 10.4094 22.693 9.71176C22.6347 8.99838 22.5131 8.39475 22.2323 7.84358C21.7769 6.94981 21.0502 6.22315 20.1565 5.76775C19.6053 5.48691 19.0017 5.3653 18.2883 5.30702C18.0141 5.28462 17.7141 5.27102 17.3846 5.26277ZM12.8925 2.87498C12.4787 2.75681 12.0168 2.75003 10.8 2.75003H4C3.30964 2.75003 2.75 3.30967 2.75 4.00003C2.75 4.69039 3.30964 5.25003 4 5.25003H15.5L15.32 5.01003C14.5899 4.03659 14.3073 3.67112 13.9645 3.411C13.6435 3.16741 13.28 2.98564 12.8925 2.87498ZM2.75 6.75003V15.6C2.75 16.7325 2.75058 17.5368 2.80201 18.1661C2.85271 18.7868 2.94909 19.171 3.10423 19.4755C3.41582 20.087 3.913 20.5842 4.52453 20.8958C4.829 21.0509 5.21325 21.1473 5.83388 21.198C6.46326 21.2494 7.26752 21.25 8.4 21.25H15.6C16.7325 21.25 17.5367 21.2494 18.1661 21.198C18.7867 21.1473 19.171 21.0509 19.4755 20.8958C20.087 20.5842 20.5842 20.087 20.8958 19.4755C21.0509 19.171 21.1473 18.7868 21.198 18.1661C21.2087 18.0354 21.2172 17.8972 21.2239 17.75H21C18.9289 17.75 17.25 16.0711 17.25 14C17.25 11.929 18.9289 10.25 21 10.25H21.2239C21.2172 10.1029 21.2087 9.96462 21.198 9.83391C21.1473 9.21328 21.0509 8.82903 20.8958 8.52456C20.5842 7.91303 20.087 7.41585 19.4755 7.10426C19.171 6.94912 18.7867 6.85274 18.1661 6.80204C17.5367 6.75061 16.7325 6.75003 15.6 6.75003H2.75ZM21.2495 11.75H21C19.7574 11.75 18.75 12.7574 18.75 14C18.75 15.2427 19.7574 16.25 21 16.25H21.2495C21.25 16.046 21.25 15.8298 21.25 15.6V12.4C21.25 12.1703 21.25 11.954 21.2495 11.75Z" fill="#000"/>
</svg>
