<svg id="menu-color-newspaper" viewBox="0 0 24 24" fill="none" xmlns="http://www.w3.org/2000/svg">
	<path id="Tone" d="M2 2.00061V15.6006C2 17.8408 2 18.9609 2.43597 19.8166C2.81947 20.5692 3.43139 21.1811 4.18404 21.5646C5.03969 22.0006 6.15979 22.0006 8.4 22.0006H18V2.00061L15.2874 3.20623C14.6759 3.478 14.3701 3.61389 14.0607 3.64788C13.7214 3.68516 13.3782 3.63498 13.0638 3.5021C12.777 3.38093 12.523 3.16319 12.0149 2.72771C11.3403 2.14942 11.0029 1.86027 10.6296 1.73645C10.2208 1.60087 9.77918 1.60087 9.3704 1.73645C8.99706 1.86027 8.65972 2.14942 7.98505 2.72771C7.47699 3.16319 7.22295 3.38093 6.93623 3.5021C6.6218 3.63498 6.2786 3.68516 5.93929 3.64788C5.62988 3.61389 5.32414 3.478 4.71265 3.20623L2 2.00061Z" fill="#E80B3A"/>
	<g id="Vector">
		<path d="M6.25 9.00061C6.25 8.5864 6.58579 8.25061 7 8.25061H11C11.4142 8.25061 11.75 8.5864 11.75 9.00061C11.75 9.41482 11.4142 9.75061 11 9.75061H7C6.58579 9.75061 6.25 9.41482 6.25 9.00061Z" fill="#000"/>
		<path d="M6.25 13.0006C6.25 12.5864 6.58579 12.2506 7 12.2506H13C13.4142 12.2506 13.75 12.5864 13.75 13.0006C13.75 13.4148 13.4142 13.7506 13 13.7506H7C6.58579 13.7506 6.25 13.4148 6.25 13.0006Z" fill="#000"/>
		<path d="M7 16.2506C6.58579 16.2506 6.25 16.5864 6.25 17.0006C6.25 17.4148 6.58579 17.7506 7 17.7506H13C13.4142 17.7506 13.75 17.4148 13.75 17.0006C13.75 16.5864 13.4142 16.2506 13 16.2506H7Z" fill="#000"/>
		<path fill-rule="evenodd" clip-rule="evenodd" d="M9.1343 1.02458C9.69638 0.83816 10.3036 0.83816 10.8657 1.02458C11.1583 1.12162 11.4089 1.27553 11.6567 1.45971C11.8931 1.63543 12.1628 1.86665 12.4839 2.14183L12.503 2.15826C13.0495 2.62666 13.2022 2.74639 13.3557 2.81126C13.5522 2.8943 13.7667 2.92567 13.9788 2.90237C14.1444 2.88417 14.325 2.81318 14.9828 2.52087L17.6954 1.31525C17.9274 1.21214 18.1958 1.2334 18.4087 1.37174C18.6216 1.51008 18.75 1.74673 18.75 2.00061V11.2506H18.8304C19.3646 11.2506 19.8104 11.2506 20.1747 11.2803C20.5546 11.3114 20.9112 11.3785 21.2485 11.5503C21.7659 11.814 22.1866 12.2347 22.4503 12.7521C22.6221 13.0894 22.6892 13.4461 22.7203 13.8259C22.75 14.1902 22.75 14.636 22.75 15.1702V20.0006C22.75 21.5194 21.5188 22.7506 20 22.7506H8.36698C7.27484 22.7506 6.40935 22.7506 5.71173 22.6936C4.99835 22.6353 4.39472 22.5137 3.84355 22.2329C2.94978 21.7775 2.22312 21.0508 1.76772 20.1571C1.48688 19.6059 1.36527 19.0023 1.30699 18.2889C1.24999 17.5913 1.24999 16.7258 1.25 15.6336V2.00061C1.25 1.74673 1.37844 1.51008 1.59132 1.37174C1.80419 1.2334 2.07261 1.21214 2.3046 1.31525L5.01725 2.52087C5.67495 2.81318 5.85557 2.88417 6.0212 2.90237C6.23327 2.92567 6.44777 2.8943 6.64429 2.81126C6.79777 2.74639 6.9505 2.62666 7.49696 2.15826L7.5161 2.14186C7.83714 1.86667 8.1069 1.63544 8.34333 1.45971C8.59113 1.27553 8.84172 1.12162 9.1343 1.02458ZM20 21.2506C20.6904 21.2506 21.25 20.691 21.25 20.0006V15.2006C21.25 14.6282 21.2494 14.244 21.2252 13.9481C21.2018 13.661 21.1599 13.5237 21.1138 13.4331C20.9939 13.1979 20.8027 13.0067 20.5675 12.8869C20.4769 12.8407 20.3396 12.7988 20.0525 12.7754C19.7566 12.7512 19.3724 12.7506 18.8 12.7506H18.75V20.0006C18.75 20.691 19.3096 21.2506 20 21.2506ZM17.5499 21.2506H8.4C7.26752 21.2506 6.46327 21.25 5.83388 21.1986C5.21325 21.1479 4.829 21.0515 4.52453 20.8964C3.913 20.5848 3.41582 20.0876 3.10423 19.4761C2.94909 19.1716 2.85271 18.7874 2.80201 18.1667C2.75058 17.5373 2.75 16.7331 2.75 15.6006V3.15468L4.50051 3.93274C5.02099 4.16454 5.42922 4.34636 5.85739 4.3934C6.32394 4.44466 6.79584 4.37565 7.22818 4.19295C7.62494 4.02528 7.96403 3.73418 8.39634 3.36305L8.47315 3.29715C8.81834 3.00127 9.04856 2.80449 9.23813 2.66359C9.421 2.52767 9.52574 2.4751 9.6065 2.44832C9.86199 2.36358 10.138 2.36358 10.3935 2.44832C10.4743 2.4751 10.579 2.52767 10.7619 2.66359C10.9514 2.80449 11.1817 3.00127 11.5269 3.29715L11.6037 3.36305C12.036 3.73418 12.3751 4.02528 12.7718 4.19295C13.2042 4.37565 13.6761 4.44466 14.1426 4.3934C14.5708 4.34636 14.979 4.16454 15.4995 3.93274L17.25 3.15468V20.0006C17.25 20.4507 17.3581 20.8756 17.5499 21.2506Z" fill="#000"/>
	</g>
</svg>
