<svg id="order" viewBox="0 0 24 24" xmlns="http://www.w3.org/2000/svg">
	<path d="M7.20873 8.47711C6.79452 8.47711 6.45873 8.8129 6.45873 9.22711C6.45873 9.64133 6.79452 9.97711 7.20873 9.97711L10.8863 9.97711C11.3005 9.97711 11.6363 9.64133 11.6363 9.22711C11.6363 8.8129 11.3005 8.47711 10.8863 8.47711L7.20873 8.47711Z"/>
	<path d="M9.96688 12.1546C9.55266 12.1546 9.21688 12.4904 9.21688 12.9046C9.21687 13.3188 9.55266 13.6546 9.96687 13.6546L12.725 13.6546C13.1392 13.6546 13.475 13.3188 13.475 12.9046C13.475 12.4904 13.1392 12.1546 12.725 12.1546L9.96688 12.1546Z"/>
	<path d="M9.21687 16.5822C9.21687 16.1679 9.55266 15.8322 9.96687 15.8322L12.725 15.8322C13.1392 15.8322 13.475 16.1679 13.475 16.5822C13.475 16.9964 13.1392 17.3322 12.725 17.3322L9.96687 17.3322C9.55266 17.3322 9.21687 16.9964 9.21687 16.5822Z"/>
	<path d="M8.12811 12.9046C8.12811 13.4124 7.71649 13.824 7.20873 13.824C6.70097 13.824 6.28935 13.4124 6.28935 12.9046C6.28935 12.3969 6.70097 11.9853 7.20873 11.9853C7.71649 11.9853 8.12811 12.3969 8.12811 12.9046Z"/>
	<path d="M7.20873 17.5015C7.71649 17.5015 8.12811 17.0899 8.12811 16.5822C8.12811 16.0744 7.71649 15.6628 7.20873 15.6628C6.70097 15.6628 6.28935 16.0744 6.28935 16.5822C6.28935 17.0899 6.70097 17.5015 7.20873 17.5015Z"/>
	<path fill-rule="evenodd" clip-rule="evenodd" d="M10.7818 1.83671C10.2527 1.66122 9.68105 1.66122 9.15192 1.83671C8.87439 1.92876 8.63812 2.07435 8.40769 2.24563C8.18862 2.40845 7.93923 2.62223 7.64518 2.87428L7.62627 2.89048C7.12077 3.32377 6.98852 3.42595 6.85815 3.48104C6.68699 3.55338 6.50015 3.5807 6.31544 3.5604C6.17475 3.54495 6.01879 3.48491 5.41038 3.21451L2.91643 2.10609C2.68443 2.00298 2.41602 2.02423 2.20314 2.16258C1.99026 2.30092 1.86182 2.53756 1.86182 2.79145L1.86182 15.3278C1.86182 16.3298 1.86181 17.1276 1.91442 17.7715C1.96831 18.4311 2.08113 18.9949 2.3444 19.5116C2.76888 20.3447 3.4462 21.022 4.27929 21.4465C4.79598 21.7097 5.35979 21.8226 6.0194 21.8765C6.66325 21.9291 7.46103 21.9291 8.46301 21.9291L19.1607 21.9291C20.5904 21.9291 21.7494 20.77 21.7494 19.3403L21.7494 14.8972C21.7494 14.4079 21.7495 13.9959 21.7219 13.6585C21.6931 13.3055 21.6303 12.9688 21.4673 12.6487C21.2191 12.1616 20.8231 11.7656 20.3359 11.5174C20.0159 11.3544 19.6792 11.2916 19.3262 11.2628C18.9888 11.2352 18.5768 11.2352 18.0875 11.2353L18.0719 11.2353L18.0719 2.79144C18.0719 2.53756 17.9435 2.30092 17.7306 2.16258C17.5177 2.02423 17.2493 2.00298 17.0173 2.10609L14.5234 3.21451C13.915 3.4849 13.759 3.54495 13.6183 3.5604C13.4336 3.5807 13.2468 3.55338 13.0756 3.48104C12.7086 3.32596 12.3875 3.02246 12.0733 2.72546C11.8911 2.55326 11.7112 2.38324 11.5261 2.24563C11.2956 2.07435 11.0593 1.92876 10.7818 1.83671ZM20.2494 19.3403C20.2494 19.9416 19.762 20.4291 19.1607 20.4291C18.5594 20.4291 18.0719 19.9416 18.0719 19.3403L18.0719 12.7353C18.5911 12.7353 18.9375 12.736 19.204 12.7578C19.4643 12.7791 19.5816 12.8166 19.655 12.8539C19.8598 12.9583 20.0264 13.1249 20.1308 13.3297C20.1681 13.403 20.2056 13.5204 20.2269 13.7807C20.2489 14.0496 20.2494 14.4 20.2494 14.9273L20.2494 19.3403ZM8.49586 20.4291L16.8113 20.4291C16.6577 20.0981 16.5719 19.7292 16.5719 19.3403L16.5719 3.94552L15.0438 4.62474C14.5694 4.8361 14.1855 5.00711 13.7821 5.05143C13.3429 5.09968 12.8987 5.03472 12.4917 4.86273C12.1179 4.70477 11.7991 4.43101 11.405 4.09265C11.3262 4.02499 11.2453 3.94894 11.162 3.87063C10.9044 3.62846 10.6238 3.36465 10.3096 3.26045C10.0871 3.18664 9.84666 3.18664 9.62413 3.26045C9.30994 3.36465 9.02936 3.62844 8.77178 3.87061C8.68848 3.94891 8.60759 4.02496 8.52875 4.09262C8.13468 4.431 7.81586 4.70476 7.44204 4.86273C7.03506 5.03472 6.59082 5.09968 6.15163 5.05143C5.74823 5.00711 5.36438 4.8361 4.88993 4.62474L3.36182 3.94552L3.36182 15.295C3.36182 16.3372 3.36241 17.0737 3.40944 17.6493C3.45575 18.2162 3.54334 18.5606 3.6809 18.8306C3.96158 19.3814 4.40943 19.8293 4.96028 20.11C5.23026 20.2475 5.57469 20.3351 6.14155 20.3814C6.71716 20.4285 7.45369 20.4291 8.49586 20.4291Z"/>
</svg>
