<svg id="share" viewBox="0 0 20 20" xmlns="http://www.w3.org/2000/svg">
	<path d="M10.442 1.64131C10.1979 1.39723 9.80216 1.39723 9.55808 1.64131L6.76641 4.43298C6.52233 4.67705 6.52233 5.07278 6.76641 5.31686C7.01049 5.56094 7.40622 5.56094 7.6503 5.31686L9.375 3.59216V12.4999C9.375 12.8451 9.65482 13.1249 10 13.1249C10.3452 13.1249 10.625 12.8451 10.625 12.4999V3.59211L12.3497 5.31686C12.5938 5.56094 12.9896 5.56094 13.2336 5.31686C13.4777 5.07278 13.4777 4.67705 13.2336 4.43298L10.442 1.64131Z"/>
	<path d="M13.0773 7.36298C13.1069 7.01908 13.4097 6.7643 13.7536 6.79391C15.3469 6.93111 16.5948 7.42106 17.4228 8.44155C18.2369 9.44479 18.55 10.8469 18.55 12.5916V12.6999C18.55 14.6243 18.1685 16.1341 17.1555 17.1471C16.1424 18.1601 14.6326 18.5416 12.7083 18.5416H7.28332C5.359 18.5416 3.84919 18.1601 2.83617 17.1471C1.82314 16.1341 1.44165 14.6243 1.44165 12.6999V12.5916C1.44165 10.8595 1.75057 9.4659 2.55152 8.46471C3.36693 7.44546 4.59659 6.94903 6.16697 6.80264C6.51066 6.7706 6.81525 7.02324 6.84729 7.36693C6.87932 7.71062 6.62668 8.0152 6.28299 8.04724C4.90337 8.17585 4.05387 8.58775 3.52761 9.24558C2.9869 9.92147 2.69165 10.9737 2.69165 12.5916V12.6999C2.69165 14.5006 3.05599 15.5991 3.72005 16.2632C4.38411 16.9273 5.48263 17.2916 7.28332 17.2916H12.7083C14.509 17.2916 15.6075 16.9273 16.2716 16.2632C16.9356 15.5991 17.3 14.5006 17.3 12.6999V12.5916C17.3 10.9613 17.0006 9.90509 16.4522 9.22916C15.9177 8.57048 15.0531 8.16043 13.6464 8.0393C13.3025 8.00969 13.0477 7.70689 13.0773 7.36298Z"/>
</svg>