<svg id="soc-wa" viewBox="0 0 24 24" fill="none" xmlns="http://www.w3.org/2000/svg">
<path fill-rule="evenodd" clip-rule="evenodd" d="M12.0461 22.811H12.0415C10.2082 22.8103 8.40683 22.3526 6.80688 21.484L1 23L2.55402 17.3509C1.59542 15.6976 1.09102 13.8222 1.09184 11.9009C1.09424 5.89018 6.00821 1 12.046 1C14.9763 1.00126 17.7266 2.13656 19.7947 4.19719C21.8628 6.25771 23.0012 8.99664 23 11.9095C22.9976 17.9188 18.0856 22.8085 12.0461 22.811ZM7.07593 19.5105L7.40839 19.7068C8.80626 20.5324 10.4086 20.9692 12.0424 20.9698H12.0461C17.0642 20.9698 21.1485 16.905 21.1505 11.9089C21.1514 9.48773 20.2053 7.21124 18.4864 5.49853C16.7674 3.78582 14.4815 2.84214 12.0496 2.84131C7.02761 2.84131 2.9433 6.90571 2.9413 11.9015C2.9406 13.6136 3.42195 15.281 4.33332 16.7236L4.5498 17.0664L3.63004 20.4101L7.07593 19.5105ZM17.1898 14.2566C17.3807 14.3484 17.5096 14.4104 17.5646 14.5018C17.633 14.6154 17.633 15.1608 17.405 15.7972C17.1769 16.4334 16.0834 17.0142 15.5575 17.0923C15.086 17.1625 14.4893 17.1918 13.8336 16.9844C13.4361 16.8589 12.9263 16.6913 12.2733 16.4106C9.70736 15.308 7.94824 12.7977 7.62051 12.3299C7.59756 12.2971 7.62947 12.3418 7.62051 12.3299C7.47568 12.1376 6.48003 10.8136 6.48003 9.47976C6.48003 8.22505 7.09933 7.56738 7.38439 7.26466C7.40392 7.24392 7.42188 7.22485 7.43797 7.20736C7.68885 6.93466 7.98539 6.86648 8.16784 6.86648C8.35029 6.86648 8.53295 6.86816 8.69242 6.87613C8.7121 6.87711 8.73256 6.87699 8.75373 6.87687C8.91322 6.87594 9.11207 6.87478 9.30824 7.34372C9.38371 7.52419 9.49413 7.79174 9.6106 8.07392C9.84612 8.64456 10.1063 9.27503 10.1521 9.36627C10.2206 9.50262 10.2662 9.66163 10.1749 9.84351C10.1612 9.87078 10.1486 9.89651 10.1365 9.9211C10.0679 10.0603 10.0175 10.1627 9.90124 10.2979C9.85551 10.351 9.80824 10.4083 9.76098 10.4656C9.66681 10.5797 9.57266 10.6938 9.49067 10.7751C9.35365 10.911 9.21101 11.0583 9.37067 11.331C9.53033 11.6037 10.0796 12.4957 10.8933 13.218C11.768 13.9944 12.5282 14.3226 12.9135 14.4889C12.9887 14.5214 13.0497 14.5477 13.0944 14.57C13.368 14.7064 13.5277 14.6836 13.6873 14.5018C13.847 14.32 14.3715 13.7064 14.554 13.4338C14.7364 13.1612 14.9189 13.2066 15.1698 13.2974C15.4207 13.3884 16.7664 14.0473 17.0401 14.1837C17.0935 14.2103 17.1434 14.2343 17.1898 14.2566Z" fill="#25D366"/>
</svg>
