<svg id="soc-tg" viewBox="0 0 24 24" fill="none" xmlns="http://www.w3.org/2000/svg">
	<path d="M0.362484 11.3031C2.81776 9.94229 5.5585 8.80651 8.11931 7.66495C12.5249 5.79517 16.948 3.95779 21.4157 2.24722C22.285 1.95577 23.8469 1.67079 24 2.96692C23.9161 4.80165 23.5711 6.62564 23.3345 8.44963C22.734 12.4608 22.0398 16.4581 21.3629 20.4561C21.1296 21.7878 19.4717 22.4771 18.4109 21.6249C15.8614 19.8922 13.2924 18.1763 10.7755 16.4034C9.95103 15.5604 10.7156 14.3499 11.4519 13.7479C13.5517 11.6658 15.7785 9.89673 17.7686 7.70695C18.3054 6.40265 16.7193 7.50187 16.1961 7.83871C13.3215 9.83194 10.5172 11.9469 7.48645 13.6987C5.93834 14.5561 4.13399 13.8234 2.58658 13.3449C1.19916 12.7669 -0.833823 12.1844 0.362484 11.3031Z" fill="#1b92d1"/>
</svg>
