<svg id="soc-ya" viewBox="0 0 48 48" xmlns="http://www.w3.org/2000/svg">
	<path fill-rule="evenodd" clip-rule="evenodd" d="M4 0C1.79086 0 0 1.79086 0 4V44C0 46.2091 1.79086 48 4 48H44C46.2091 48 48 46.2091 48 44V4C48 1.79086 46.2091 0 44 0H4ZM31 34.9778V12.0222H25.6725C20.3043 12.0222 17.4982 15.0193 17.4982 19.4595C17.4982 22.9783 19.0436 25.0874 21.7887 27.2297L17 35H20.9753L26.3028 26.2862L24.4524 24.9431C22.2055 23.2891 21.1176 22.0014 21.1176 19.2264C21.1176 16.7732 22.6834 15.1192 25.6928 15.1192H27.3195V34.9778H31Z"/>
</svg>
